<svg width="151" height="232" viewBox="0 0 151 232" fill="none" xmlns="http://www.w3.org/2000/svg">
    <g filter="url(#filter0_i_7_16373)">
        <path d="M0 20C0 8.95431 8.9543 0 20 0H131C142.046 0 151 8.95431 151 20V212C151 223.046 142.046 232 131 232H20C8.95431 232 0 223.046 0 212V20Z" fill="white"/>
        <path d="M20 0.5H131C141.77 0.5 150.5 9.23045 150.5 20V212C150.5 222.77 141.77 231.5 131 231.5H20C9.23045 231.5 0.5 222.77 0.5 212V20C0.500002 9.23045 9.23045 0.5 20 0.5Z" stroke="#E3E3E3"/>
        <path d="M14 30C14 22.268 20.268 16 28 16H87C94.732 16 101 22.268 101 30C101 37.732 94.732 44 87 44H28C20.268 44 14 37.732 14 30Z" fill="#4167F2"/>
        <path d="M34.822 29.988C34.822 31.472 34.3273 32.7133 33.338 33.712C32.3393 34.72 31.1167 35.224 29.67 35.224C28.214 35.224 26.9913 34.72 26.002 33.712C25.0127 32.7133 24.518 31.472 24.518 29.988C24.518 28.504 25.0127 27.2627 26.002 26.264C26.9913 25.256 28.214 24.752 29.67 24.752C31.126 24.752 32.3487 25.2607 33.338 26.278C34.3273 27.2767 34.822 28.5133 34.822 29.988ZM25.834 29.988C25.834 31.1453 26.198 32.102 26.926 32.858C27.6633 33.614 28.578 33.992 29.67 33.992C30.762 33.992 31.672 33.614 32.4 32.858C33.1373 32.1113 33.506 31.1547 33.506 29.988C33.506 28.8213 33.1373 27.8647 32.4 27.118C31.672 26.362 30.762 25.984 29.67 25.984C28.578 25.984 27.6633 26.362 26.926 27.118C26.198 27.874 25.834 28.8307 25.834 29.988ZM39.478 34.048C40.094 34.048 40.612 33.8147 41.032 33.348C41.452 32.8907 41.662 32.298 41.662 31.57C41.662 30.8513 41.452 30.2587 41.032 29.792C40.612 29.3253 40.094 29.092 39.478 29.092C38.8527 29.092 38.33 29.3253 37.91 29.792C37.4993 30.2587 37.294 30.8513 37.294 31.57C37.294 32.298 37.4993 32.8953 37.91 33.362C38.33 33.8193 38.8527 34.048 39.478 34.048ZM39.688 35.224C39.184 35.224 38.722 35.1167 38.302 34.902C37.8913 34.6873 37.574 34.4027 37.35 34.048H37.294L37.35 35V38.024H36.062V28.14H37.294V29.092H37.35C37.574 28.7373 37.8913 28.4527 38.302 28.238C38.722 28.0233 39.184 27.916 39.688 27.916C40.5933 27.916 41.3587 28.2707 41.984 28.98C42.628 29.6987 42.95 30.562 42.95 31.57C42.95 32.5873 42.628 33.4507 41.984 34.16C41.3587 34.8693 40.5933 35.224 39.688 35.224ZM47.2097 35.224C46.2017 35.224 45.371 34.8787 44.7177 34.188C44.0644 33.4973 43.7377 32.6247 43.7377 31.57C43.7377 30.5247 44.055 29.6567 44.6897 28.966C45.3244 28.266 46.1364 27.916 47.1257 27.916C48.143 27.916 48.9504 28.2473 49.5477 28.91C50.1544 29.5633 50.4577 30.4827 50.4577 31.668L50.4437 31.808H45.0537C45.0724 32.48 45.2964 33.0213 45.7257 33.432C46.155 33.8427 46.6684 34.048 47.2657 34.048C48.087 34.048 48.731 33.6373 49.1977 32.816L50.3457 33.376C50.0377 33.9547 49.6084 34.4073 49.0577 34.734C48.5164 35.0607 47.9004 35.224 47.2097 35.224ZM45.1517 30.744H49.0857C49.0484 30.268 48.8524 29.876 48.4977 29.568C48.1524 29.2507 47.6857 29.092 47.0977 29.092C46.6124 29.092 46.1924 29.2413 45.8377 29.54C45.4924 29.8387 45.2637 30.24 45.1517 30.744ZM51.6356 28.14H52.8676V29.092H52.9236C53.1196 28.756 53.4182 28.476 53.8196 28.252C54.2302 28.028 54.6549 27.916 55.0936 27.916C55.9336 27.916 56.5776 28.1587 57.0256 28.644C57.4829 29.12 57.7116 29.8013 57.7116 30.688V35H56.4236V30.772C56.3956 29.652 55.8309 29.092 54.7296 29.092C54.2162 29.092 53.7869 29.302 53.4416 29.722C53.0962 30.1327 52.9236 30.6273 52.9236 31.206V35H51.6356V28.14ZM65.0156 35.112C64.4556 35.112 63.989 34.9393 63.6156 34.594C63.2516 34.2487 63.065 33.768 63.0556 33.152V29.316H61.8516V28.14H63.0556V26.04H64.3436V28.14H66.0236V29.316H64.3436V32.732C64.3436 33.1893 64.4323 33.502 64.6096 33.67C64.787 33.8287 64.9876 33.908 65.2116 33.908C65.3143 33.908 65.4123 33.8987 65.5056 33.88C65.6083 33.852 65.7016 33.8193 65.7856 33.782L66.1916 34.93C65.8556 35.0513 65.4636 35.112 65.0156 35.112ZM66.7885 31.57C66.7885 30.5153 67.1198 29.6427 67.7825 28.952C68.4545 28.2613 69.2992 27.916 70.3165 27.916C71.3338 27.916 72.1738 28.2613 72.8365 28.952C73.5085 29.6427 73.8445 30.5153 73.8445 31.57C73.8445 32.634 73.5085 33.5067 72.8365 34.188C72.1738 34.8787 71.3338 35.224 70.3165 35.224C69.2992 35.224 68.4545 34.8787 67.7825 34.188C67.1198 33.4973 66.7885 32.6247 66.7885 31.57ZM68.0765 31.57C68.0765 32.3073 68.2912 32.9047 68.7205 33.362C69.1498 33.8193 69.6818 34.048 70.3165 34.048C70.9512 34.048 71.4832 33.8193 71.9125 33.362C72.3418 32.9047 72.5565 32.3073 72.5565 31.57C72.5565 30.842 72.3418 30.2493 71.9125 29.792C71.4738 29.3253 70.9418 29.092 70.3165 29.092C69.6912 29.092 69.1592 29.3253 68.7205 29.792C68.2912 30.2493 68.0765 30.842 68.0765 31.57ZM79.0286 32.9C79.0286 33.236 79.1686 33.516 79.4486 33.74C79.738 33.964 80.074 34.076 80.4566 34.076C80.998 34.076 81.4786 33.8753 81.8986 33.474C82.328 33.0727 82.5426 32.6013 82.5426 32.06C82.1413 31.7427 81.5813 31.584 80.8626 31.584C80.34 31.584 79.9013 31.71 79.5466 31.962C79.2013 32.214 79.0286 32.5267 79.0286 32.9ZM80.6946 27.916C81.6466 27.916 82.398 28.1727 82.9486 28.686C83.4993 29.19 83.7746 29.8853 83.7746 30.772V35H82.5426V34.048H82.4866C81.9546 34.832 81.2453 35.224 80.3586 35.224C79.6026 35.224 78.968 35 78.4546 34.552C77.9506 34.104 77.6986 33.544 77.6986 32.872C77.6986 32.1627 77.9646 31.598 78.4966 31.178C79.038 30.758 79.7566 30.548 80.6526 30.548C81.418 30.548 82.048 30.688 82.5426 30.968V30.674C82.5426 30.226 82.3653 29.848 82.0106 29.54C81.656 29.2227 81.2406 29.064 80.7646 29.064C80.046 29.064 79.4766 29.3673 79.0566 29.974L77.9226 29.26C78.548 28.364 79.472 27.916 80.6946 27.916ZM86.5154 24.976V35H85.2274V24.976H86.5154ZM89.3728 24.976V35H88.0848V24.976H89.3728Z" fill="white"/>
        <path d="M19.248 74.256C18.5973 74.256 18.0053 74.1493 17.472 73.936C16.9387 73.712 16.48 73.3973 16.096 72.992C15.712 72.5867 15.4133 72.096 15.2 71.52C14.9973 70.944 14.896 70.304 14.896 69.6V62.544H16.704V69.696C16.704 70.1013 16.7573 70.48 16.864 70.832C16.9707 71.1733 17.1307 71.472 17.344 71.728C17.5573 71.9733 17.8187 72.1707 18.128 72.32C18.448 72.4587 18.8213 72.528 19.248 72.528C19.664 72.528 20.032 72.4587 20.352 72.32C20.672 72.1707 20.9333 71.9733 21.136 71.728C21.3493 71.472 21.5093 71.1733 21.616 70.832C21.7227 70.48 21.776 70.1013 21.776 69.696V62.544H23.584V69.6C23.584 70.2933 23.4827 70.928 23.28 71.504C23.088 72.0693 22.8 72.5547 22.416 72.96C22.0427 73.3653 21.5893 73.6853 21.056 73.92C20.5227 74.144 19.92 74.256 19.248 74.256ZM25.3164 66.16H26.9964V67.168H27.0924C27.3057 66.8267 27.631 66.5333 28.0684 66.288C28.5057 66.032 29.0284 65.904 29.6364 65.904C30.1377 65.904 30.6124 66.0107 31.0604 66.224C31.519 66.4267 31.919 66.7147 32.2604 67.088C32.6017 67.4613 32.8737 67.904 33.0764 68.416C33.279 68.9173 33.3804 69.472 33.3804 70.08C33.3804 70.688 33.279 71.248 33.0764 71.76C32.8737 72.2613 32.6017 72.6987 32.2604 73.072C31.919 73.4453 31.519 73.7387 31.0604 73.952C30.6124 74.1547 30.1377 74.256 29.6364 74.256C29.0284 74.256 28.5057 74.1333 28.0684 73.888C27.631 73.632 27.3057 73.3333 27.0924 72.992H26.9964L27.0924 74.08V77.456H25.3164V66.16ZM29.3004 72.608C29.599 72.608 29.887 72.5493 30.1644 72.432C30.4524 72.3147 30.6977 72.1493 30.9004 71.936C31.1137 71.712 31.2844 71.4453 31.4124 71.136C31.5404 70.8267 31.6044 70.4747 31.6044 70.08C31.6044 69.6853 31.5404 69.3333 31.4124 69.024C31.2844 68.7147 31.1137 68.4533 30.9004 68.24C30.6977 68.016 30.4524 67.8453 30.1644 67.728C29.887 67.6107 29.599 67.552 29.3004 67.552C28.991 67.552 28.6977 67.6107 28.4204 67.728C28.143 67.8453 27.8977 68.0107 27.6844 68.224C27.4817 68.4373 27.3164 68.704 27.1884 69.024C27.0604 69.3333 26.9964 69.6853 26.9964 70.08C26.9964 70.4747 27.0604 70.832 27.1884 71.152C27.3164 71.4613 27.4817 71.7227 27.6844 71.936C27.8977 72.1493 28.143 72.3147 28.4204 72.432C28.6977 72.5493 28.991 72.608 29.3004 72.608ZM34.5679 74V62.544H36.3439V74H34.5679ZM41.7003 65.904C42.2976 65.904 42.8469 66.0107 43.3483 66.224C43.8496 66.4267 44.2816 66.7147 44.6443 67.088C45.0069 67.4613 45.2896 67.904 45.4923 68.416C45.6949 68.928 45.7963 69.4827 45.7963 70.08C45.7963 70.6773 45.6949 71.232 45.4923 71.744C45.2896 72.256 45.0069 72.6987 44.6443 73.072C44.2816 73.4453 43.8496 73.7387 43.3483 73.952C42.8469 74.1547 42.2976 74.256 41.7003 74.256C41.1029 74.256 40.5536 74.1547 40.0523 73.952C39.5509 73.7387 39.1189 73.4453 38.7563 73.072C38.3936 72.6987 38.1109 72.256 37.9083 71.744C37.7056 71.232 37.6043 70.6773 37.6043 70.08C37.6043 69.4827 37.7056 68.928 37.9083 68.416C38.1109 67.904 38.3936 67.4613 38.7563 67.088C39.1189 66.7147 39.5509 66.4267 40.0523 66.224C40.5536 66.0107 41.1029 65.904 41.7003 65.904ZM41.7003 72.608C41.9989 72.608 42.2869 72.5493 42.5643 72.432C42.8416 72.3147 43.0869 72.1493 43.3003 71.936C43.5243 71.7227 43.7003 71.4613 43.8283 71.152C43.9563 70.832 44.0203 70.4747 44.0203 70.08C44.0203 69.6853 43.9563 69.3333 43.8283 69.024C43.7003 68.704 43.5243 68.4373 43.3003 68.224C43.0869 68.0107 42.8416 67.8453 42.5643 67.728C42.2869 67.6107 41.9989 67.552 41.7003 67.552C41.4016 67.552 41.1136 67.6107 40.8363 67.728C40.5589 67.8453 40.3083 68.0107 40.0843 68.224C39.8709 68.4373 39.7003 68.704 39.5723 69.024C39.4443 69.3333 39.3803 69.6853 39.3803 70.08C39.3803 70.4747 39.4443 70.832 39.5723 71.152C39.7003 71.4613 39.8709 71.7227 40.0843 71.936C40.3083 72.1493 40.5589 72.3147 40.8363 72.432C41.1136 72.5493 41.4016 72.608 41.7003 72.608ZM52.106 73.04H52.01C51.7753 73.3493 51.4713 73.632 51.098 73.888C50.7247 74.1333 50.25 74.256 49.674 74.256C49.258 74.256 48.8687 74.1867 48.506 74.048C48.1433 73.92 47.8287 73.7387 47.562 73.504C47.2953 73.2587 47.082 72.976 46.922 72.656C46.7727 72.3253 46.698 71.9627 46.698 71.568C46.698 71.152 46.778 70.7787 46.938 70.448C47.1087 70.1173 47.338 69.84 47.626 69.616C47.9247 69.392 48.2767 69.2213 48.682 69.104C49.0873 68.976 49.5247 68.912 49.994 68.912C50.5167 68.912 50.954 68.9653 51.306 69.072C51.658 69.168 51.9247 69.2587 52.106 69.344V69.04C52.106 68.8053 52.0527 68.5867 51.946 68.384C51.85 68.1813 51.7113 68.0107 51.53 67.872C51.3593 67.7227 51.162 67.6107 50.938 67.536C50.714 67.4507 50.4793 67.408 50.234 67.408C49.8393 67.408 49.482 67.488 49.162 67.648C48.8527 67.7973 48.5753 68.0427 48.33 68.384L46.922 67.456C47.2953 66.944 47.7593 66.56 48.314 66.304C48.8687 66.0373 49.498 65.904 50.202 65.904C51.3647 65.904 52.2607 66.192 52.89 66.768C53.53 67.344 53.85 68.1653 53.85 69.232V74H52.106V73.04ZM52.106 70.736C51.8713 70.5973 51.61 70.4853 51.322 70.4C51.034 70.3147 50.7033 70.272 50.33 70.272C49.7753 70.272 49.3327 70.4 49.002 70.656C48.6713 70.912 48.506 71.2213 48.506 71.584C48.506 71.776 48.5487 71.9467 48.634 72.096C48.7193 72.2347 48.826 72.3573 48.954 72.464C49.0927 72.5707 49.2473 72.6507 49.418 72.704C49.5993 72.7573 49.7807 72.784 49.962 72.784C50.25 72.784 50.522 72.7307 50.778 72.624C51.0447 72.5067 51.274 72.3573 51.466 72.176C51.658 71.984 51.8127 71.7653 51.93 71.52C52.0473 71.2747 52.106 71.0133 52.106 70.736ZM61.3789 72.992H61.2829C61.0695 73.3333 60.7442 73.632 60.3069 73.888C59.8695 74.1333 59.3469 74.256 58.7389 74.256C58.2375 74.256 57.7575 74.1547 57.2989 73.952C56.8509 73.7387 56.4562 73.4453 56.1149 73.072C55.7735 72.6987 55.5015 72.2613 55.2989 71.76C55.0962 71.248 54.9949 70.688 54.9949 70.08C54.9949 69.472 55.0962 68.9173 55.2989 68.416C55.5015 67.904 55.7735 67.4613 56.1149 67.088C56.4562 66.7147 56.8509 66.4267 57.2989 66.224C57.7575 66.0107 58.2375 65.904 58.7389 65.904C59.3469 65.904 59.8695 66.032 60.3069 66.288C60.7442 66.5333 61.0695 66.8267 61.2829 67.168H61.3789L61.2829 66.08V62.544H63.0589V74H61.3789V72.992ZM59.0749 72.608C59.3735 72.608 59.6615 72.5493 59.9389 72.432C60.2269 72.3147 60.4722 72.1493 60.6749 71.936C60.8882 71.7227 61.0589 71.4613 61.1869 71.152C61.3149 70.832 61.3789 70.4747 61.3789 70.08C61.3789 69.6853 61.3149 69.3333 61.1869 69.024C61.0589 68.704 60.8882 68.4373 60.6749 68.224C60.4722 68.0107 60.2269 67.8453 59.9389 67.728C59.6615 67.6107 59.3735 67.552 59.0749 67.552C58.7655 67.552 58.4722 67.6107 58.1949 67.728C57.9175 67.8453 57.6722 68.016 57.4589 68.24C57.2562 68.4533 57.0909 68.7147 56.9629 69.024C56.8349 69.3333 56.7709 69.6853 56.7709 70.08C56.7709 70.4747 56.8349 70.8267 56.9629 71.136C57.0909 71.4453 57.2562 71.712 57.4589 71.936C57.6722 72.1493 57.9175 72.3147 58.1949 72.432C58.4722 72.5493 58.7655 72.608 59.0749 72.608ZM70.8761 68.672L67.0201 62.544H69.1801L71.7401 66.768H71.8361L74.3161 62.544H76.4761L72.6841 68.672V74H70.8761V68.672ZM79.6221 65.904C80.2195 65.904 80.7688 66.0107 81.2701 66.224C81.7715 66.4267 82.2035 66.7147 82.5661 67.088C82.9288 67.4613 83.2115 67.904 83.4141 68.416C83.6168 68.928 83.7181 69.4827 83.7181 70.08C83.7181 70.6773 83.6168 71.232 83.4141 71.744C83.2115 72.256 82.9288 72.6987 82.5661 73.072C82.2035 73.4453 81.7715 73.7387 81.2701 73.952C80.7688 74.1547 80.2195 74.256 79.6221 74.256C79.0248 74.256 78.4755 74.1547 77.9741 73.952C77.4728 73.7387 77.0408 73.4453 76.6781 73.072C76.3155 72.6987 76.0328 72.256 75.8301 71.744C75.6275 71.232 75.5261 70.6773 75.5261 70.08C75.5261 69.4827 75.6275 68.928 75.8301 68.416C76.0328 67.904 76.3155 67.4613 76.6781 67.088C77.0408 66.7147 77.4728 66.4267 77.9741 66.224C78.4755 66.0107 79.0248 65.904 79.6221 65.904ZM79.6221 72.608C79.9208 72.608 80.2088 72.5493 80.4861 72.432C80.7635 72.3147 81.0088 72.1493 81.2221 71.936C81.4461 71.7227 81.6221 71.4613 81.7501 71.152C81.8781 70.832 81.9421 70.4747 81.9421 70.08C81.9421 69.6853 81.8781 69.3333 81.7501 69.024C81.6221 68.704 81.4461 68.4373 81.2221 68.224C81.0088 68.0107 80.7635 67.8453 80.4861 67.728C80.2088 67.6107 79.9208 67.552 79.6221 67.552C79.3235 67.552 79.0355 67.6107 78.7581 67.728C78.4808 67.8453 78.2301 68.0107 78.0061 68.224C77.7928 68.4373 77.6221 68.704 77.4941 69.024C77.3661 69.3333 77.3021 69.6853 77.3021 70.08C77.3021 70.4747 77.3661 70.832 77.4941 71.152C77.6221 71.4613 77.7928 71.7227 78.0061 71.936C78.2301 72.1493 78.4808 72.3147 78.7581 72.432C79.0355 72.5493 79.3235 72.608 79.6221 72.608ZM90.4458 72.944H90.3498C90.1151 73.3173 89.7791 73.632 89.3418 73.888C88.9151 74.1333 88.4298 74.256 87.8858 74.256C86.8938 74.256 86.1524 73.9627 85.6618 73.376C85.1711 72.7787 84.9258 71.9893 84.9258 71.008V66.16H86.7018V70.768C86.7018 71.4507 86.8564 71.9307 87.1658 72.208C87.4858 72.4747 87.9018 72.608 88.4138 72.608C88.7124 72.608 88.9791 72.544 89.2138 72.416C89.4591 72.288 89.6671 72.1173 89.8378 71.904C90.0084 71.68 90.1364 71.4293 90.2218 71.152C90.3071 70.864 90.3498 70.5653 90.3498 70.256V66.16H92.1258V74H90.4458V72.944ZM93.9116 66.16H95.5916V67.344H95.6876C95.7836 67.1413 95.9116 66.9547 96.0716 66.784C96.2423 66.6027 96.429 66.4533 96.6316 66.336C96.845 66.208 97.0636 66.112 97.2876 66.048C97.5223 65.9733 97.7463 65.936 97.9596 65.936C98.2156 65.936 98.4343 65.9573 98.6156 66C98.797 66.0427 98.9623 66.1013 99.1116 66.176L98.5996 67.824C98.4823 67.7707 98.349 67.7333 98.1996 67.712C98.061 67.68 97.8903 67.664 97.6876 67.664C97.3996 67.664 97.133 67.7227 96.8876 67.84C96.653 67.9573 96.445 68.1173 96.2636 68.32C96.0823 68.5227 95.9383 68.7627 95.8316 69.04C95.7356 69.3173 95.6876 69.6107 95.6876 69.92V74H93.9116V66.16ZM15.152 98V86.544H19.12C19.632 86.544 20.112 86.6293 20.56 86.8C21.0187 86.9707 21.4187 87.2107 21.76 87.52C22.1013 87.8293 22.368 88.2027 22.56 88.64C22.7627 89.0667 22.864 89.5413 22.864 90.064C22.864 90.576 22.7627 91.0507 22.56 91.488C22.368 91.9147 22.1013 92.2827 21.76 92.592C21.4187 92.9013 21.0187 93.1413 20.56 93.312C20.112 93.4827 19.632 93.568 19.12 93.568H16.96V98H15.152ZM19.168 91.84C19.4667 91.84 19.7333 91.792 19.968 91.696C20.2027 91.5893 20.4 91.4507 20.56 91.28C20.72 91.1093 20.8427 90.9173 20.928 90.704C21.0133 90.4907 21.056 90.2773 21.056 90.064C21.056 89.84 21.0133 89.6213 20.928 89.408C20.8427 89.1947 20.72 89.008 20.56 88.848C20.4 88.6773 20.2027 88.5387 19.968 88.432C19.7333 88.3253 19.4667 88.272 19.168 88.272H16.96V91.84H19.168ZM24.146 90.16H25.826V91.344H25.922C26.018 91.1413 26.146 90.9547 26.306 90.784C26.4767 90.6027 26.6633 90.4533 26.866 90.336C27.0793 90.208 27.298 90.112 27.522 90.048C27.7567 89.9733 27.9807 89.936 28.194 89.936C28.45 89.936 28.6687 89.9573 28.85 90C29.0313 90.0427 29.1967 90.1013 29.346 90.176L28.834 91.824C28.7167 91.7707 28.5833 91.7333 28.434 91.712C28.2953 91.68 28.1247 91.664 27.922 91.664C27.634 91.664 27.3673 91.7227 27.122 91.84C26.8873 91.9573 26.6793 92.1173 26.498 92.32C26.3167 92.5227 26.1727 92.7627 26.066 93.04C25.97 93.3173 25.922 93.6107 25.922 93.92V98H24.146V90.16ZM33.4659 89.904C34.0632 89.904 34.6125 90.0107 35.1139 90.224C35.6152 90.4267 36.0472 90.7147 36.4099 91.088C36.7725 91.4613 37.0552 91.904 37.2579 92.416C37.4605 92.928 37.5619 93.4827 37.5619 94.08C37.5619 94.6773 37.4605 95.232 37.2579 95.744C37.0552 96.256 36.7725 96.6987 36.4099 97.072C36.0472 97.4453 35.6152 97.7387 35.1139 97.952C34.6125 98.1547 34.0632 98.256 33.4659 98.256C32.8685 98.256 32.3192 98.1547 31.8179 97.952C31.3165 97.7387 30.8845 97.4453 30.5219 97.072C30.1592 96.6987 29.8765 96.256 29.6739 95.744C29.4712 95.232 29.3699 94.6773 29.3699 94.08C29.3699 93.4827 29.4712 92.928 29.6739 92.416C29.8765 91.904 30.1592 91.4613 30.5219 91.088C30.8845 90.7147 31.3165 90.4267 31.8179 90.224C32.3192 90.0107 32.8685 89.904 33.4659 89.904ZM33.4659 96.608C33.7645 96.608 34.0525 96.5493 34.3299 96.432C34.6072 96.3147 34.8525 96.1493 35.0659 95.936C35.2899 95.7227 35.4659 95.4613 35.5939 95.152C35.7219 94.832 35.7859 94.4747 35.7859 94.08C35.7859 93.6853 35.7219 93.3333 35.5939 93.024C35.4659 92.704 35.2899 92.4373 35.0659 92.224C34.8525 92.0107 34.6072 91.8453 34.3299 91.728C34.0525 91.6107 33.7645 91.552 33.4659 91.552C33.1672 91.552 32.8792 91.6107 32.6019 91.728C32.3245 91.8453 32.0739 92.0107 31.8499 92.224C31.6365 92.4373 31.4659 92.704 31.3379 93.024C31.2099 93.3333 31.1459 93.6853 31.1459 94.08C31.1459 94.4747 31.2099 94.832 31.3379 95.152C31.4659 95.4613 31.6365 95.7227 31.8499 95.936C32.0739 96.1493 32.3245 96.3147 32.6019 96.432C32.8792 96.5493 33.1672 96.608 33.4659 96.608ZM37.6495 99.872C37.7988 99.9467 37.9588 99.984 38.1295 99.984C38.4388 99.984 38.6522 99.888 38.7695 99.696C38.8975 99.5147 38.9615 99.2533 38.9615 98.912V90.16H40.7375V98.928C40.7375 99.408 40.6735 99.8187 40.5455 100.16C40.4282 100.501 40.2575 100.779 40.0335 100.992C39.8095 101.205 39.5482 101.36 39.2495 101.456C38.9508 101.563 38.6255 101.616 38.2735 101.616C38.0602 101.616 37.8682 101.595 37.6975 101.552C37.5162 101.52 37.3455 101.477 37.1855 101.424L37.6495 99.872ZM39.8575 88.768C39.5162 88.768 39.2282 88.6507 38.9935 88.416C38.7695 88.1813 38.6575 87.8987 38.6575 87.568C38.6575 87.2373 38.7695 86.9547 38.9935 86.72C39.2282 86.4853 39.5162 86.368 39.8575 86.368C40.1882 86.368 40.4655 86.4853 40.6895 86.72C40.9242 86.9547 41.0415 87.2373 41.0415 87.568C41.0415 87.8987 40.9242 88.1813 40.6895 88.416C40.4655 88.6507 40.1882 88.768 39.8575 88.768ZM49.8475 96.128C49.5168 96.736 49.0475 97.2427 48.4395 97.648C47.8315 98.0533 47.0848 98.256 46.1995 98.256C45.6128 98.256 45.0688 98.1547 44.5675 97.952C44.0768 97.7387 43.6502 97.4453 43.2875 97.072C42.9248 96.6987 42.6422 96.2613 42.4395 95.76C42.2368 95.248 42.1355 94.688 42.1355 94.08C42.1355 93.5147 42.2315 92.9813 42.4235 92.48C42.6155 91.968 42.8822 91.5253 43.2235 91.152C43.5755 90.768 43.9968 90.464 44.4875 90.24C44.9782 90.016 45.5222 89.904 46.1195 89.904C46.7275 89.904 47.2662 90.0053 47.7355 90.208C48.2155 90.4107 48.6208 90.6933 48.9515 91.056C49.2822 91.4187 49.5328 91.856 49.7035 92.368C49.8848 92.88 49.9755 93.44 49.9755 94.048C49.9755 94.1013 49.9755 94.1493 49.9755 94.192C49.9648 94.2453 49.9595 94.2933 49.9595 94.336C49.9488 94.3787 49.9435 94.4213 49.9435 94.464H43.9115C43.9435 94.8373 44.0342 95.1627 44.1835 95.44C44.3328 95.7173 44.5142 95.9467 44.7275 96.128C44.9515 96.3093 45.1968 96.4427 45.4635 96.528C45.7302 96.6133 45.9915 96.656 46.2475 96.656C46.7595 96.656 47.1808 96.5333 47.5115 96.288C47.8422 96.0427 48.1142 95.7387 48.3275 95.376L49.8475 96.128ZM48.1995 93.104C48.1782 92.944 48.1248 92.768 48.0395 92.576C47.9648 92.3733 47.8422 92.192 47.6715 92.032C47.5115 91.8613 47.2982 91.7173 47.0315 91.6C46.7755 91.4827 46.4608 91.424 46.0875 91.424C45.5755 91.424 45.1328 91.5787 44.7595 91.888C44.3968 92.1867 44.1515 92.592 44.0235 93.104H48.1995ZM58.644 96C58.4947 96.3093 58.308 96.6027 58.084 96.88C57.8707 97.1467 57.6147 97.3867 57.316 97.6C57.028 97.8027 56.692 97.9627 56.308 98.08C55.924 98.1973 55.5027 98.256 55.044 98.256C54.4467 98.256 53.8973 98.1547 53.396 97.952C52.8947 97.7387 52.4627 97.4453 52.1 97.072C51.7373 96.6987 51.4547 96.256 51.252 95.744C51.0493 95.232 50.948 94.6773 50.948 94.08C50.948 93.4827 51.0493 92.928 51.252 92.416C51.4547 91.904 51.7373 91.4613 52.1 91.088C52.4627 90.7147 52.8947 90.4267 53.396 90.224C53.8973 90.0107 54.4467 89.904 55.044 89.904C55.5027 89.904 55.9187 89.9627 56.292 90.08C56.676 90.1973 57.012 90.3627 57.3 90.576C57.5987 90.7787 57.8547 91.0187 58.068 91.296C58.2813 91.5627 58.452 91.8453 58.58 92.144L56.948 92.832C56.7667 92.4267 56.516 92.112 56.196 91.888C55.876 91.664 55.4707 91.552 54.98 91.552C54.6813 91.552 54.3933 91.616 54.116 91.744C53.8493 91.8613 53.6093 92.032 53.396 92.256C53.1933 92.4693 53.028 92.7307 52.9 93.04C52.7827 93.3493 52.724 93.696 52.724 94.08C52.724 94.464 52.7827 94.8107 52.9 95.12C53.028 95.4293 53.1933 95.696 53.396 95.92C53.6093 96.1333 53.8493 96.304 54.116 96.432C54.3933 96.5493 54.6813 96.608 54.98 96.608C55.4707 96.608 55.8867 96.496 56.228 96.272C56.58 96.0373 56.852 95.7173 57.044 95.312L58.644 96ZM60.7131 91.728H59.3371V90.16H60.7131V87.76H62.4891V90.16H64.4251V91.728H62.4891V95.216C62.4891 95.408 62.5105 95.584 62.5531 95.744C62.5958 95.904 62.6598 96.0373 62.7451 96.144C62.9265 96.3467 63.1558 96.448 63.4331 96.448C63.6038 96.448 63.7371 96.4373 63.8331 96.416C63.9291 96.384 64.0305 96.3413 64.1371 96.288L64.6811 97.856C64.4571 97.9413 64.2225 98.0053 63.9771 98.048C63.7318 98.1013 63.4545 98.128 63.1451 98.128C62.7718 98.128 62.4411 98.0693 62.1531 97.952C61.8651 97.8347 61.6145 97.6747 61.4011 97.472C60.9425 97.0133 60.7131 96.3893 60.7131 95.6V91.728ZM69.0283 98.256C68.5483 98.256 68.1163 98.192 67.7323 98.064C67.3483 97.936 67.0123 97.7707 66.7243 97.568C66.4363 97.3547 66.1909 97.1147 65.9883 96.848C65.7963 96.5813 65.6469 96.304 65.5403 96.016L67.1403 95.344C67.3216 95.8027 67.5829 96.144 67.9243 96.368C68.2656 96.5813 68.6336 96.688 69.0283 96.688C69.4763 96.688 69.8283 96.5973 70.0843 96.416C70.3403 96.2347 70.4683 96.032 70.4683 95.808C70.4683 95.584 70.3723 95.392 70.1803 95.232C69.9883 95.0613 69.6256 94.912 69.0923 94.784L67.9723 94.512C67.7269 94.4587 67.4763 94.3787 67.2203 94.272C66.9749 94.1547 66.7456 94.0107 66.5323 93.84C66.3189 93.6587 66.1429 93.4453 66.0043 93.2C65.8763 92.944 65.8123 92.6453 65.8123 92.304C65.8123 91.92 65.8923 91.5787 66.0523 91.28C66.2229 90.9813 66.4523 90.7307 66.7403 90.528C67.0283 90.3253 67.3589 90.1707 67.7323 90.064C68.1163 89.9573 68.5216 89.904 68.9483 89.904C69.3003 89.904 69.6363 89.9413 69.9563 90.016C70.2869 90.0907 70.5909 90.2027 70.8683 90.352C71.1456 90.5013 71.3909 90.6933 71.6043 90.928C71.8283 91.152 72.0043 91.4187 72.1323 91.728L70.5643 92.384C70.4149 92.0427 70.1803 91.7973 69.8602 91.648C69.5402 91.488 69.2149 91.408 68.8843 91.408C68.7349 91.408 68.5803 91.4293 68.4203 91.472C68.2709 91.504 68.1323 91.5573 68.0043 91.632C67.8869 91.696 67.7856 91.7813 67.7003 91.888C67.6256 91.9947 67.5883 92.112 67.5883 92.24C67.5883 92.4533 67.6789 92.624 67.8603 92.752C68.0523 92.8693 68.3403 92.976 68.7243 93.072L69.9243 93.376C70.7349 93.5787 71.3269 93.888 71.7003 94.304C72.0843 94.7093 72.2763 95.1893 72.2763 95.744C72.2763 96.0853 72.1963 96.4053 72.0363 96.704C71.8869 97.0027 71.6683 97.2693 71.3803 97.504C71.0923 97.7387 70.7456 97.92 70.3403 98.048C69.9456 98.1867 69.5083 98.256 69.0283 98.256Z" fill="black"/>
        <path d="M21.196 128.326C21.196 129.203 20.874 129.908 20.23 130.44C19.5767 130.963 18.7833 131.224 17.85 131.224C17.0193 131.224 16.2867 130.981 15.652 130.496C15.0173 130.011 14.5787 129.348 14.336 128.508L15.568 128.004C15.652 128.303 15.7687 128.573 15.918 128.816C16.0673 129.059 16.24 129.269 16.436 129.446C16.6413 129.614 16.8653 129.749 17.108 129.852C17.3507 129.945 17.6073 129.992 17.878 129.992C18.466 129.992 18.9467 129.843 19.32 129.544C19.6933 129.236 19.88 128.83 19.88 128.326C19.88 127.906 19.726 127.547 19.418 127.248C19.1287 126.959 18.5873 126.679 17.794 126.408C16.9913 126.119 16.492 125.923 16.296 125.82C15.232 125.279 14.7 124.481 14.7 123.426C14.7 122.689 14.994 122.059 15.582 121.536C16.1793 121.013 16.912 120.752 17.78 120.752C18.5453 120.752 19.208 120.948 19.768 121.34C20.328 121.723 20.7013 122.203 20.888 122.782L19.684 123.286C19.572 122.913 19.348 122.605 19.012 122.362C18.6853 122.11 18.284 121.984 17.808 121.984C17.304 121.984 16.8793 122.124 16.534 122.404C16.1887 122.665 16.016 123.006 16.016 123.426C16.016 123.771 16.1513 124.07 16.422 124.322C16.7207 124.574 17.3693 124.873 18.368 125.218C19.3853 125.563 20.1087 125.988 20.538 126.492C20.9767 126.987 21.196 127.598 21.196 128.326ZM22.5223 120.976H23.8103V124.14L23.7543 125.092H23.8103C24.0063 124.756 24.3049 124.476 24.7063 124.252C25.1169 124.028 25.5416 123.916 25.9803 123.916C26.8203 123.916 27.4643 124.159 27.9123 124.644C28.3696 125.12 28.5983 125.801 28.5983 126.688V131H27.3103V126.94C27.3103 125.708 26.7643 125.092 25.6723 125.092C25.1496 125.092 24.7063 125.311 24.3423 125.75C23.9876 126.179 23.8103 126.683 23.8103 127.262V131H22.5223V120.976ZM30.9798 128.9C30.9798 129.236 31.1198 129.516 31.3998 129.74C31.6891 129.964 32.0251 130.076 32.4078 130.076C32.9491 130.076 33.4298 129.875 33.8498 129.474C34.2791 129.073 34.4938 128.601 34.4938 128.06C34.0925 127.743 33.5325 127.584 32.8138 127.584C32.2911 127.584 31.8525 127.71 31.4978 127.962C31.1525 128.214 30.9798 128.527 30.9798 128.9ZM32.6458 123.916C33.5978 123.916 34.3491 124.173 34.8998 124.686C35.4505 125.19 35.7258 125.885 35.7258 126.772V131H34.4938V130.048H34.4378C33.9058 130.832 33.1965 131.224 32.3098 131.224C31.5538 131.224 30.9191 131 30.4058 130.552C29.9018 130.104 29.6498 129.544 29.6498 128.872C29.6498 128.163 29.9158 127.598 30.4478 127.178C30.9891 126.758 31.7078 126.548 32.6038 126.548C33.3691 126.548 33.9991 126.688 34.4938 126.968V126.674C34.4938 126.226 34.3165 125.848 33.9618 125.54C33.6071 125.223 33.1918 125.064 32.7158 125.064C31.9971 125.064 31.4278 125.367 31.0078 125.974L29.8738 125.26C30.4991 124.364 31.4231 123.916 32.6458 123.916ZM38.4665 131H37.1785V124.14H38.4105V125.26H38.4665C38.5972 124.896 38.8632 124.588 39.2645 124.336C39.6752 124.075 40.0765 123.944 40.4685 123.944C40.8419 123.944 41.1592 124 41.4205 124.112L41.0285 125.358C40.8699 125.293 40.6179 125.26 40.2725 125.26C39.7872 125.26 39.3625 125.456 38.9985 125.848C38.6439 126.24 38.4665 126.697 38.4665 127.22V131ZM44.9206 131.224C43.9126 131.224 43.082 130.879 42.4286 130.188C41.7753 129.497 41.4486 128.625 41.4486 127.57C41.4486 126.525 41.766 125.657 42.4006 124.966C43.0353 124.266 43.8473 123.916 44.8366 123.916C45.854 123.916 46.6613 124.247 47.2586 124.91C47.8653 125.563 48.1686 126.483 48.1686 127.668L48.1546 127.808H42.7646C42.7833 128.48 43.0073 129.021 43.4366 129.432C43.866 129.843 44.3793 130.048 44.9766 130.048C45.798 130.048 46.442 129.637 46.9086 128.816L48.0566 129.376C47.7486 129.955 47.3193 130.407 46.7686 130.734C46.2273 131.061 45.6113 131.224 44.9206 131.224ZM42.8626 126.744H46.7966C46.7593 126.268 46.5633 125.876 46.2086 125.568C45.8633 125.251 45.3966 125.092 44.8086 125.092C44.3233 125.092 43.9033 125.241 43.5486 125.54C43.2033 125.839 42.9746 126.24 42.8626 126.744ZM58.5547 124.14L54.2567 134.024H52.9267L54.5227 130.566L51.6947 124.14H53.0947L55.1387 129.068H55.1667L57.1547 124.14H58.5547ZM58.7299 127.57C58.7299 126.515 59.0612 125.643 59.7239 124.952C60.3959 124.261 61.2406 123.916 62.2579 123.916C63.2752 123.916 64.1152 124.261 64.7779 124.952C65.4499 125.643 65.7859 126.515 65.7859 127.57C65.7859 128.634 65.4499 129.507 64.7779 130.188C64.1152 130.879 63.2752 131.224 62.2579 131.224C61.2406 131.224 60.3959 130.879 59.7239 130.188C59.0612 129.497 58.7299 128.625 58.7299 127.57ZM60.0179 127.57C60.0179 128.307 60.2326 128.905 60.6619 129.362C61.0912 129.819 61.6232 130.048 62.2579 130.048C62.8926 130.048 63.4246 129.819 63.8539 129.362C64.2832 128.905 64.4979 128.307 64.4979 127.57C64.4979 126.842 64.2832 126.249 63.8539 125.792C63.4152 125.325 62.8832 125.092 62.2579 125.092C61.6326 125.092 61.1006 125.325 60.6619 125.792C60.2326 126.249 60.0179 126.842 60.0179 127.57ZM72.9075 131H71.6755V130.048H71.6195C71.4235 130.384 71.1202 130.664 70.7095 130.888C70.3082 131.112 69.8882 131.224 69.4495 131.224C68.6095 131.224 67.9608 130.986 67.5035 130.51C67.0555 130.025 66.8315 129.339 66.8315 128.452V124.14H68.1195V128.368C68.1475 129.488 68.7122 130.048 69.8135 130.048C70.3268 130.048 70.7562 129.843 71.1015 129.432C71.4468 129.012 71.6195 128.513 71.6195 127.934V124.14H72.9075V131ZM75.7634 131H74.4754V124.14H75.7074V125.26H75.7634C75.8941 124.896 76.1601 124.588 76.5614 124.336C76.9721 124.075 77.3734 123.944 77.7654 123.944C78.1387 123.944 78.4561 124 78.7174 124.112L78.3254 125.358C78.1667 125.293 77.9147 125.26 77.5694 125.26C77.0841 125.26 76.6594 125.456 76.2954 125.848C75.9407 126.24 75.7634 126.697 75.7634 127.22V131ZM18.144 150.048C18.76 150.048 19.278 149.815 19.698 149.348C20.118 148.891 20.328 148.298 20.328 147.57C20.328 146.851 20.118 146.259 19.698 145.792C19.278 145.325 18.76 145.092 18.144 145.092C17.5187 145.092 16.996 145.325 16.576 145.792C16.1653 146.259 15.96 146.851 15.96 147.57C15.96 148.298 16.1653 148.895 16.576 149.362C16.996 149.819 17.5187 150.048 18.144 150.048ZM18.354 151.224C17.85 151.224 17.388 151.117 16.968 150.902C16.5573 150.687 16.24 150.403 16.016 150.048H15.96L16.016 151V154.024H14.728V144.14H15.96V145.092H16.016C16.24 144.737 16.5573 144.453 16.968 144.238C17.388 144.023 17.85 143.916 18.354 143.916C19.2593 143.916 20.0247 144.271 20.65 144.98C21.294 145.699 21.616 146.562 21.616 147.57C21.616 148.587 21.294 149.451 20.65 150.16C20.0247 150.869 19.2593 151.224 18.354 151.224ZM24.0154 151H22.7274V144.14H23.9594V145.26H24.0154C24.146 144.896 24.412 144.588 24.8134 144.336C25.224 144.075 25.6254 143.944 26.0174 143.944C26.3907 143.944 26.708 144 26.9694 144.112L26.5774 145.358C26.4187 145.293 26.1667 145.26 25.8214 145.26C25.336 145.26 24.9114 145.456 24.5474 145.848C24.1927 146.24 24.0154 146.697 24.0154 147.22V151ZM26.9975 147.57C26.9975 146.515 27.3288 145.643 27.9915 144.952C28.6635 144.261 29.5081 143.916 30.5255 143.916C31.5428 143.916 32.3828 144.261 33.0455 144.952C33.7175 145.643 34.0535 146.515 34.0535 147.57C34.0535 148.634 33.7175 149.507 33.0455 150.188C32.3828 150.879 31.5428 151.224 30.5255 151.224C29.5081 151.224 28.6635 150.879 27.9915 150.188C27.3288 149.497 26.9975 148.625 26.9975 147.57ZM28.2855 147.57C28.2855 148.307 28.5001 148.905 28.9295 149.362C29.3588 149.819 29.8908 150.048 30.5255 150.048C31.1601 150.048 31.6921 149.819 32.1215 149.362C32.5508 148.905 32.7655 148.307 32.7655 147.57C32.7655 146.842 32.5508 146.249 32.1215 145.792C31.6828 145.325 31.1508 145.092 30.5255 145.092C29.9001 145.092 29.3681 145.325 28.9295 145.792C28.5001 146.249 28.2855 146.842 28.2855 147.57ZM36.8211 141.774C36.8211 142.026 36.7324 142.241 36.5551 142.418C36.3778 142.595 36.1631 142.684 35.9111 142.684C35.6591 142.684 35.4444 142.595 35.2671 142.418C35.0898 142.241 35.0011 142.026 35.0011 141.774C35.0011 141.522 35.0898 141.307 35.2671 141.13C35.4444 140.953 35.6591 140.864 35.9111 140.864C36.1631 140.864 36.3778 140.953 36.5551 141.13C36.7324 141.307 36.8211 141.522 36.8211 141.774ZM34.4971 154.164C34.2171 154.164 33.9651 154.117 33.7411 154.024L34.0771 152.904C34.2264 152.96 34.3524 152.988 34.4551 152.988C34.9778 152.988 35.2484 152.666 35.2671 152.022V144.14H36.5551V151.826C36.5551 153.385 35.8691 154.164 34.4971 154.164ZM41.2429 151.224C40.2349 151.224 39.4042 150.879 38.7509 150.188C38.0976 149.497 37.7709 148.625 37.7709 147.57C37.7709 146.525 38.0882 145.657 38.7229 144.966C39.3576 144.266 40.1696 143.916 41.1589 143.916C42.1762 143.916 42.9836 144.247 43.5809 144.91C44.1876 145.563 44.4909 146.483 44.4909 147.668L44.4769 147.808H39.0869C39.1056 148.48 39.3296 149.021 39.7589 149.432C40.1882 149.843 40.7016 150.048 41.2989 150.048C42.1202 150.048 42.7642 149.637 43.2309 148.816L44.3789 149.376C44.0709 149.955 43.6416 150.407 43.0909 150.734C42.5496 151.061 41.9336 151.224 41.2429 151.224ZM39.1849 146.744H43.1189C43.0816 146.268 42.8856 145.876 42.5309 145.568C42.1856 145.251 41.7189 145.092 41.1309 145.092C40.6456 145.092 40.2256 145.241 39.8709 145.54C39.5256 145.839 39.2969 146.24 39.1849 146.744ZM48.8731 151.224C47.8558 151.224 47.0111 150.879 46.3391 150.188C45.6765 149.479 45.3451 148.606 45.3451 147.57C45.3451 146.515 45.6765 145.643 46.3391 144.952C47.0111 144.261 47.8558 143.916 48.8731 143.916C49.5731 143.916 50.1845 144.093 50.7071 144.448C51.2298 144.793 51.6218 145.274 51.8831 145.89L50.7071 146.38C50.3431 145.521 49.7038 145.092 48.7891 145.092C48.2011 145.092 47.6925 145.33 47.2631 145.806C46.8431 146.282 46.6331 146.87 46.6331 147.57C46.6331 148.27 46.8431 148.858 47.2631 149.334C47.6925 149.81 48.2011 150.048 48.7891 150.048C49.7318 150.048 50.3945 149.619 50.7771 148.76L51.9251 149.25C51.6731 149.866 51.2765 150.351 50.7351 150.706C50.2031 151.051 49.5825 151.224 48.8731 151.224ZM55.6992 151.112C55.1392 151.112 54.6726 150.939 54.2992 150.594C53.9352 150.249 53.7486 149.768 53.7392 149.152V145.316H52.5352V144.14H53.7392V142.04H55.0272V144.14H56.7072V145.316H55.0272V148.732C55.0272 149.189 55.1159 149.502 55.2932 149.67C55.4706 149.829 55.6712 149.908 55.8952 149.908C55.9979 149.908 56.0959 149.899 56.1892 149.88C56.2919 149.852 56.3852 149.819 56.4692 149.782L56.8752 150.93C56.5392 151.051 56.1472 151.112 55.6992 151.112ZM63.3192 149.096C63.3192 149.693 63.0578 150.197 62.5352 150.608C62.0125 151.019 61.3545 151.224 60.5612 151.224C59.8705 151.224 59.2638 151.047 58.7412 150.692C58.2185 150.328 57.8452 149.852 57.6212 149.264L58.7692 148.774C58.9372 149.185 59.1798 149.507 59.4972 149.74C59.8238 149.964 60.1785 150.076 60.5612 150.076C60.9718 150.076 61.3125 149.987 61.5832 149.81C61.8632 149.633 62.0032 149.423 62.0032 149.18C62.0032 148.741 61.6672 148.419 60.9952 148.214L59.8192 147.92C58.4845 147.584 57.8172 146.94 57.8172 145.988C57.8172 145.363 58.0692 144.863 58.5732 144.49C59.0865 144.107 59.7398 143.916 60.5332 143.916C61.1398 143.916 61.6858 144.061 62.1712 144.35C62.6658 144.639 63.0112 145.027 63.2072 145.512L62.0592 145.988C61.9285 145.699 61.7138 145.475 61.4152 145.316C61.1258 145.148 60.7992 145.064 60.4352 145.064C60.0992 145.064 59.7958 145.148 59.5252 145.316C59.2638 145.484 59.1332 145.689 59.1332 145.932C59.1332 146.324 59.5018 146.604 60.2392 146.772L61.2752 147.038C62.6378 147.374 63.3192 148.06 63.3192 149.096ZM77.2324 144.14L75.0204 151H73.7044L71.9964 145.736L70.3024 151H69.0004L66.7884 144.14H68.1324L69.6584 149.32H69.6724L71.3664 144.14H72.6964L74.3904 149.32H74.4044L75.9164 144.14H77.2324ZM79.7371 141.774C79.7371 142.026 79.6484 142.241 79.4711 142.418C79.2938 142.595 79.0791 142.684 78.8271 142.684C78.5751 142.684 78.3604 142.595 78.1831 142.418C78.0058 142.241 77.9171 142.026 77.9171 141.774C77.9171 141.522 78.0058 141.307 78.1831 141.13C78.3604 140.953 78.5751 140.864 78.8271 140.864C79.0791 140.864 79.2938 140.953 79.4711 141.13C79.6484 141.307 79.7371 141.522 79.7371 141.774ZM79.4711 144.14V151H78.1831V144.14H79.4711ZM83.7949 151.112C83.2349 151.112 82.7683 150.939 82.3949 150.594C82.0309 150.249 81.8443 149.768 81.8349 149.152V145.316H80.6309V144.14H81.8349V142.04H83.1229V144.14H84.8029V145.316H83.1229V148.732C83.1229 149.189 83.2116 149.502 83.3889 149.67C83.5663 149.829 83.7669 149.908 83.9909 149.908C84.0936 149.908 84.1916 149.899 84.2849 149.88C84.3876 149.852 84.4809 149.819 84.5649 149.782L84.9709 150.93C84.6349 151.051 84.2429 151.112 83.7949 151.112ZM86.0965 140.976H87.3845V144.14L87.3285 145.092H87.3845C87.5805 144.756 87.8792 144.476 88.2805 144.252C88.6912 144.028 89.1158 143.916 89.5545 143.916C90.3945 143.916 91.0385 144.159 91.4865 144.644C91.9438 145.12 92.1725 145.801 92.1725 146.688V151H90.8845V146.94C90.8845 145.708 90.3385 145.092 89.2465 145.092C88.7238 145.092 88.2805 145.311 87.9165 145.75C87.5618 146.179 87.3845 146.683 87.3845 147.262V151H86.0965V140.976ZM99.4766 151.112C98.9166 151.112 98.4499 150.939 98.0766 150.594C97.7126 150.249 97.5259 149.768 97.5166 149.152V145.316H96.3126V144.14H97.5166V142.04H98.8046V144.14H100.485V145.316H98.8046V148.732C98.8046 149.189 98.8932 149.502 99.0706 149.67C99.2479 149.829 99.4486 149.908 99.6726 149.908C99.7752 149.908 99.8732 149.899 99.9666 149.88C100.069 149.852 100.163 149.819 100.247 149.782L100.653 150.93C100.317 151.051 99.9246 151.112 99.4766 151.112ZM101.778 140.976H103.066V144.14L103.01 145.092H103.066C103.262 144.756 103.561 144.476 103.962 144.252C104.373 144.028 104.797 143.916 105.236 143.916C106.076 143.916 106.72 144.159 107.168 144.644C107.625 145.12 107.854 145.801 107.854 146.688V151H106.566V146.94C106.566 145.708 106.02 145.092 104.928 145.092C104.405 145.092 103.962 145.311 103.598 145.75C103.243 146.179 103.066 146.683 103.066 147.262V151H101.778V140.976ZM112.446 151.224C111.438 151.224 110.607 150.879 109.954 150.188C109.301 149.497 108.974 148.625 108.974 147.57C108.974 146.525 109.291 145.657 109.926 144.966C110.561 144.266 111.373 143.916 112.362 143.916C113.379 143.916 114.187 144.247 114.784 144.91C115.391 145.563 115.694 146.483 115.694 147.668L115.68 147.808H110.29C110.309 148.48 110.533 149.021 110.962 149.432C111.391 149.843 111.905 150.048 112.502 150.048C113.323 150.048 113.967 149.637 114.434 148.816L115.582 149.376C115.274 149.955 114.845 150.407 114.294 150.734C113.753 151.061 113.137 151.224 112.446 151.224ZM110.388 146.744H114.322C114.285 146.268 114.089 145.876 113.734 145.568C113.389 145.251 112.922 145.092 112.334 145.092C111.849 145.092 111.429 145.241 111.074 145.54C110.729 145.839 110.5 146.24 110.388 146.744ZM17.92 171.224C16.9027 171.224 16.058 170.879 15.386 170.188C14.7233 169.479 14.392 168.606 14.392 167.57C14.392 166.515 14.7233 165.643 15.386 164.952C16.058 164.261 16.9027 163.916 17.92 163.916C18.62 163.916 19.2313 164.093 19.754 164.448C20.2767 164.793 20.6687 165.274 20.93 165.89L19.754 166.38C19.39 165.521 18.7507 165.092 17.836 165.092C17.248 165.092 16.7393 165.33 16.31 165.806C15.89 166.282 15.68 166.87 15.68 167.57C15.68 168.27 15.89 168.858 16.31 169.334C16.7393 169.81 17.248 170.048 17.836 170.048C18.7787 170.048 19.4413 169.619 19.824 168.76L20.972 169.25C20.72 169.866 20.3233 170.351 19.782 170.706C19.25 171.051 18.6293 171.224 17.92 171.224ZM21.6381 167.57C21.6381 166.515 21.9694 165.643 22.6321 164.952C23.3041 164.261 24.1488 163.916 25.1661 163.916C26.1834 163.916 27.0234 164.261 27.6861 164.952C28.3581 165.643 28.6941 166.515 28.6941 167.57C28.6941 168.634 28.3581 169.507 27.6861 170.188C27.0234 170.879 26.1834 171.224 25.1661 171.224C24.1488 171.224 23.3041 170.879 22.6321 170.188C21.9694 169.497 21.6381 168.625 21.6381 167.57ZM22.9261 167.57C22.9261 168.307 23.1408 168.905 23.5701 169.362C23.9994 169.819 24.5314 170.048 25.1661 170.048C25.8008 170.048 26.3328 169.819 26.7621 169.362C27.1914 168.905 27.4061 168.307 27.4061 167.57C27.4061 166.842 27.1914 166.249 26.7621 165.792C26.3234 165.325 25.7914 165.092 25.1661 165.092C24.5408 165.092 24.0088 165.325 23.5701 165.792C23.1408 166.249 22.9261 166.842 22.9261 167.57ZM31.0154 171H29.7274V164.14H30.9594V165.092H31.0154C31.2114 164.756 31.51 164.476 31.9114 164.252C32.322 164.028 32.728 163.916 33.1294 163.916C33.6334 163.916 34.0767 164.033 34.4594 164.266C34.842 164.499 35.122 164.821 35.2994 165.232C35.8687 164.355 36.6574 163.916 37.6654 163.916C38.4587 163.916 39.07 164.159 39.4994 164.644C39.9287 165.129 40.1434 165.82 40.1434 166.716V171H38.8554V166.912C38.8554 166.268 38.7387 165.806 38.5054 165.526C38.272 165.237 37.88 165.092 37.3294 165.092C36.8347 165.092 36.4194 165.302 36.0834 165.722C35.7474 166.142 35.5794 166.637 35.5794 167.206V171H34.2914V166.912C34.2914 166.268 34.1747 165.806 33.9414 165.526C33.708 165.237 33.316 165.092 32.7654 165.092C32.2707 165.092 31.8554 165.302 31.5194 165.722C31.1834 166.142 31.0154 166.637 31.0154 167.206V171ZM42.9372 171H41.6492V164.14H42.8812V165.092H42.9372C43.1332 164.756 43.4319 164.476 43.8332 164.252C44.2439 164.028 44.6499 163.916 45.0512 163.916C45.5552 163.916 45.9986 164.033 46.3812 164.266C46.7639 164.499 47.0439 164.821 47.2212 165.232C47.7906 164.355 48.5792 163.916 49.5872 163.916C50.3806 163.916 50.9919 164.159 51.4212 164.644C51.8506 165.129 52.0652 165.82 52.0652 166.716V171H50.7772V166.912C50.7772 166.268 50.6606 165.806 50.4272 165.526C50.1939 165.237 49.8019 165.092 49.2512 165.092C48.7566 165.092 48.3412 165.302 48.0052 165.722C47.6692 166.142 47.5012 166.637 47.5012 167.206V171H46.2132V166.912C46.2132 166.268 46.0966 165.806 45.8632 165.526C45.6299 165.237 45.2379 165.092 44.6872 165.092C44.1926 165.092 43.7772 165.302 43.4412 165.722C43.1052 166.142 42.9372 166.637 42.9372 167.206V171ZM59.5911 171H58.3591V170.048H58.3031C58.1071 170.384 57.8038 170.664 57.3931 170.888C56.9918 171.112 56.5718 171.224 56.1331 171.224C55.2931 171.224 54.6444 170.986 54.1871 170.51C53.7391 170.025 53.5151 169.339 53.5151 168.452V164.14H54.8031V168.368C54.8311 169.488 55.3958 170.048 56.4971 170.048C57.0104 170.048 57.4398 169.843 57.7851 169.432C58.1304 169.012 58.3031 168.513 58.3031 167.934V164.14H59.5911V171ZM61.159 164.14H62.391V165.092H62.447C62.643 164.756 62.9417 164.476 63.343 164.252C63.7537 164.028 64.1783 163.916 64.617 163.916C65.457 163.916 66.101 164.159 66.549 164.644C67.0063 165.12 67.235 165.801 67.235 166.688V171H65.947V166.772C65.919 165.652 65.3543 165.092 64.253 165.092C63.7397 165.092 63.3103 165.302 62.965 165.722C62.6197 166.133 62.447 166.627 62.447 167.206V171H61.159V164.14ZM70.4129 161.774C70.4129 162.026 70.3242 162.241 70.1469 162.418C69.9696 162.595 69.7549 162.684 69.5029 162.684C69.2509 162.684 69.0362 162.595 68.8589 162.418C68.6816 162.241 68.5929 162.026 68.5929 161.774C68.5929 161.522 68.6816 161.307 68.8589 161.13C69.0362 160.953 69.2509 160.864 69.5029 160.864C69.7549 160.864 69.9696 160.953 70.1469 161.13C70.3242 161.307 70.4129 161.522 70.4129 161.774ZM70.1469 164.14V171H68.8589V164.14H70.1469ZM74.4707 171.112C73.9107 171.112 73.444 170.939 73.0707 170.594C72.7067 170.249 72.52 169.768 72.5107 169.152V165.316H71.3067V164.14H72.5107V162.04H73.7987V164.14H75.4787V165.316H73.7987V168.732C73.7987 169.189 73.8874 169.502 74.0647 169.67C74.242 169.829 74.4427 169.908 74.6667 169.908C74.7694 169.908 74.8674 169.899 74.9607 169.88C75.0634 169.852 75.1567 169.819 75.2407 169.782L75.6467 170.93C75.3107 171.051 74.9187 171.112 74.4707 171.112ZM82.9043 164.14L78.6063 174.024H77.2763L78.8723 170.566L76.0443 164.14H77.4443L79.4883 169.068H79.5163L81.5043 164.14H82.9043ZM89.5371 171.112C88.9771 171.112 88.5104 170.939 88.1371 170.594C87.7731 170.249 87.5864 169.768 87.5771 169.152V165.316H86.3731V164.14H87.5771V162.04H88.8651V164.14H90.5451V165.316H88.8651V168.732C88.8651 169.189 88.9538 169.502 89.1311 169.67C89.3084 169.829 89.5091 169.908 89.7331 169.908C89.8358 169.908 89.9338 169.899 90.0271 169.88C90.1298 169.852 90.2231 169.819 90.3071 169.782L90.7131 170.93C90.3771 171.051 89.9851 171.112 89.5371 171.112ZM91.31 167.57C91.31 166.515 91.6413 165.643 92.304 164.952C92.976 164.261 93.8206 163.916 94.838 163.916C95.8553 163.916 96.6953 164.261 97.358 164.952C98.03 165.643 98.366 166.515 98.366 167.57C98.366 168.634 98.03 169.507 97.358 170.188C96.6953 170.879 95.8553 171.224 94.838 171.224C93.8206 171.224 92.976 170.879 92.304 170.188C91.6413 169.497 91.31 168.625 91.31 167.57ZM92.598 167.57C92.598 168.307 92.8126 168.905 93.242 169.362C93.6713 169.819 94.2033 170.048 94.838 170.048C95.4726 170.048 96.0046 169.819 96.434 169.362C96.8633 168.905 97.078 168.307 97.078 167.57C97.078 166.842 96.8633 166.249 96.434 165.792C95.9953 165.325 95.4633 165.092 94.838 165.092C94.2126 165.092 93.6806 165.325 93.242 165.792C92.8126 166.249 92.598 166.842 92.598 167.57ZM20.034 189.096C20.034 189.693 19.7727 190.197 19.25 190.608C18.7273 191.019 18.0693 191.224 17.276 191.224C16.5853 191.224 15.9787 191.047 15.456 190.692C14.9333 190.328 14.56 189.852 14.336 189.264L15.484 188.774C15.652 189.185 15.8947 189.507 16.212 189.74C16.5387 189.964 16.8933 190.076 17.276 190.076C17.6867 190.076 18.0273 189.987 18.298 189.81C18.578 189.633 18.718 189.423 18.718 189.18C18.718 188.741 18.382 188.419 17.71 188.214L16.534 187.92C15.1993 187.584 14.532 186.94 14.532 185.988C14.532 185.363 14.784 184.863 15.288 184.49C15.8013 184.107 16.4547 183.916 17.248 183.916C17.8547 183.916 18.4007 184.061 18.886 184.35C19.3807 184.639 19.726 185.027 19.922 185.512L18.774 185.988C18.6433 185.699 18.4287 185.475 18.13 185.316C17.8407 185.148 17.514 185.064 17.15 185.064C16.814 185.064 16.5107 185.148 16.24 185.316C15.9787 185.484 15.848 185.689 15.848 185.932C15.848 186.324 16.2167 186.604 16.954 186.772L17.99 187.038C19.3527 187.374 20.034 188.06 20.034 189.096ZM21.1551 180.976H22.4431V184.14L22.3871 185.092H22.4431C22.6391 184.756 22.9378 184.476 23.3391 184.252C23.7498 184.028 24.1744 183.916 24.6131 183.916C25.4531 183.916 26.0971 184.159 26.5451 184.644C27.0024 185.12 27.2311 185.801 27.2311 186.688V191H25.9431V186.94C25.9431 185.708 25.3971 185.092 24.3051 185.092C23.7824 185.092 23.3391 185.311 22.9751 185.75C22.6204 186.179 22.4431 186.683 22.4431 187.262V191H21.1551V180.976ZM28.351 187.57C28.351 186.515 28.6823 185.643 29.345 184.952C30.017 184.261 30.8617 183.916 31.879 183.916C32.8963 183.916 33.7363 184.261 34.399 184.952C35.071 185.643 35.407 186.515 35.407 187.57C35.407 188.634 35.071 189.507 34.399 190.188C33.7363 190.879 32.8963 191.224 31.879 191.224C30.8617 191.224 30.017 190.879 29.345 190.188C28.6823 189.497 28.351 188.625 28.351 187.57ZM29.639 187.57C29.639 188.307 29.8537 188.905 30.283 189.362C30.7123 189.819 31.2443 190.048 31.879 190.048C32.5137 190.048 33.0457 189.819 33.475 189.362C33.9043 188.905 34.119 188.307 34.119 187.57C34.119 186.842 33.9043 186.249 33.475 185.792C33.0363 185.325 32.5043 185.092 31.879 185.092C31.2537 185.092 30.7217 185.325 30.283 185.792C29.8537 186.249 29.639 186.842 29.639 187.57ZM46.1563 184.14L43.9443 191H42.6283L40.9203 185.736L39.2263 191H37.9243L35.7123 184.14H37.0563L38.5823 189.32H38.5963L40.2903 184.14H41.6203L43.3143 189.32H43.3283L44.8403 184.14H46.1563ZM49.9942 191.224C48.9769 191.224 48.1322 190.879 47.4602 190.188C46.7976 189.479 46.4662 188.606 46.4662 187.57C46.4662 186.515 46.7976 185.643 47.4602 184.952C48.1322 184.261 48.9769 183.916 49.9942 183.916C50.6942 183.916 51.3056 184.093 51.8282 184.448C52.3509 184.793 52.7429 185.274 53.0042 185.89L51.8282 186.38C51.4642 185.521 50.8249 185.092 49.9102 185.092C49.3222 185.092 48.8136 185.33 48.3842 185.806C47.9642 186.282 47.7542 186.87 47.7542 187.57C47.7542 188.27 47.9642 188.858 48.3842 189.334C48.8136 189.81 49.3222 190.048 49.9102 190.048C50.8529 190.048 51.5156 189.619 51.8982 188.76L53.0462 189.25C52.7942 189.866 52.3976 190.351 51.8562 190.706C51.3242 191.051 50.7036 191.224 49.9942 191.224ZM55.0423 188.9C55.0423 189.236 55.1823 189.516 55.4623 189.74C55.7516 189.964 56.0876 190.076 56.4703 190.076C57.0116 190.076 57.4923 189.875 57.9123 189.474C58.3416 189.073 58.5563 188.601 58.5563 188.06C58.155 187.743 57.595 187.584 56.8763 187.584C56.3536 187.584 55.915 187.71 55.5603 187.962C55.215 188.214 55.0423 188.527 55.0423 188.9ZM56.7083 183.916C57.6603 183.916 58.4116 184.173 58.9623 184.686C59.513 185.19 59.7883 185.885 59.7883 186.772V191H58.5563V190.048H58.5003C57.9683 190.832 57.259 191.224 56.3723 191.224C55.6163 191.224 54.9816 191 54.4683 190.552C53.9643 190.104 53.7123 189.544 53.7123 188.872C53.7123 188.163 53.9783 187.598 54.5103 187.178C55.0516 186.758 55.7703 186.548 56.6663 186.548C57.4316 186.548 58.0616 186.688 58.5563 186.968V186.674C58.5563 186.226 58.379 185.848 58.0243 185.54C57.6696 185.223 57.2543 185.064 56.7783 185.064C56.0596 185.064 55.4903 185.367 55.0703 185.974L53.9363 185.26C54.5616 184.364 55.4856 183.916 56.7083 183.916ZM66.4227 189.096C66.4227 189.693 66.1613 190.197 65.6387 190.608C65.116 191.019 64.458 191.224 63.6647 191.224C62.974 191.224 62.3673 191.047 61.8447 190.692C61.322 190.328 60.9487 189.852 60.7247 189.264L61.8727 188.774C62.0407 189.185 62.2833 189.507 62.6007 189.74C62.9273 189.964 63.282 190.076 63.6647 190.076C64.0753 190.076 64.416 189.987 64.6867 189.81C64.9667 189.633 65.1067 189.423 65.1067 189.18C65.1067 188.741 64.7707 188.419 64.0987 188.214L62.9227 187.92C61.588 187.584 60.9207 186.94 60.9207 185.988C60.9207 185.363 61.1727 184.863 61.6767 184.49C62.19 184.107 62.8433 183.916 63.6367 183.916C64.2433 183.916 64.7893 184.061 65.2747 184.35C65.7693 184.639 66.1147 185.027 66.3107 185.512L65.1627 185.988C65.032 185.699 64.8173 185.475 64.5187 185.316C64.2293 185.148 63.9027 185.064 63.5387 185.064C63.2027 185.064 62.8993 185.148 62.6287 185.316C62.3673 185.484 62.2367 185.689 62.2367 185.932C62.2367 186.324 62.6053 186.604 63.3427 186.772L64.3787 187.038C65.7413 187.374 66.4227 188.06 66.4227 189.096ZM70.6921 191.224C69.6841 191.224 68.8535 190.879 68.2001 190.188C67.5468 189.497 67.2201 188.625 67.2201 187.57C67.2201 186.525 67.5375 185.657 68.1721 184.966C68.8068 184.266 69.6188 183.916 70.6081 183.916C71.6255 183.916 72.4328 184.247 73.0301 184.91C73.6368 185.563 73.9401 186.483 73.9401 187.668L73.9261 187.808H68.5361C68.5548 188.48 68.7788 189.021 69.2081 189.432C69.6375 189.843 70.1508 190.048 70.7481 190.048C71.5695 190.048 72.2135 189.637 72.6801 188.816L73.8281 189.376C73.5201 189.955 73.0908 190.407 72.5401 190.734C71.9988 191.061 71.3828 191.224 70.6921 191.224ZM68.6341 186.744H72.5681C72.5308 186.268 72.3348 185.876 71.9801 185.568C71.6348 185.251 71.1681 185.092 70.5801 185.092C70.0948 185.092 69.6748 185.241 69.3201 185.54C68.9748 185.839 68.7461 186.24 68.6341 186.744ZM84.3262 184.14L80.0282 194.024H78.6982L80.2942 190.566L77.4662 184.14H78.8662L80.9102 189.068H80.9382L82.9262 184.14H84.3262ZM84.5014 187.57C84.5014 186.515 84.8327 185.643 85.4954 184.952C86.1674 184.261 87.012 183.916 88.0294 183.916C89.0467 183.916 89.8867 184.261 90.5494 184.952C91.2214 185.643 91.5574 186.515 91.5574 187.57C91.5574 188.634 91.2214 189.507 90.5494 190.188C89.8867 190.879 89.0467 191.224 88.0294 191.224C87.012 191.224 86.1674 190.879 85.4954 190.188C84.8327 189.497 84.5014 188.625 84.5014 187.57ZM85.7894 187.57C85.7894 188.307 86.004 188.905 86.4334 189.362C86.8627 189.819 87.3947 190.048 88.0294 190.048C88.664 190.048 89.196 189.819 89.6254 189.362C90.0547 188.905 90.2694 188.307 90.2694 187.57C90.2694 186.842 90.0547 186.249 89.6254 185.792C89.1867 185.325 88.6547 185.092 88.0294 185.092C87.404 185.092 86.872 185.325 86.4334 185.792C86.004 186.249 85.7894 186.842 85.7894 187.57ZM98.679 191H97.447V190.048H97.391C97.195 190.384 96.8917 190.664 96.481 190.888C96.0797 191.112 95.6597 191.224 95.221 191.224C94.381 191.224 93.7323 190.986 93.275 190.51C92.827 190.025 92.603 189.339 92.603 188.452V184.14H93.891V188.368C93.919 189.488 94.4837 190.048 95.585 190.048C96.0983 190.048 96.5277 189.843 96.873 189.432C97.2183 189.012 97.391 188.513 97.391 187.934V184.14H98.679V191ZM101.535 191H100.247V184.14H101.479V185.26H101.535C101.666 184.896 101.932 184.588 102.333 184.336C102.744 184.075 103.145 183.944 103.537 183.944C103.91 183.944 104.228 184 104.489 184.112L104.097 185.358C103.938 185.293 103.686 185.26 103.341 185.26C102.856 185.26 102.431 185.456 102.067 185.848C101.712 186.24 101.535 186.697 101.535 187.22V191ZM24.5 204.14L22.288 211H20.972L19.264 205.736L17.57 211H16.268L14.056 204.14H15.4L16.926 209.32H16.94L18.634 204.14H19.964L21.658 209.32H21.672L23.184 204.14H24.5ZM24.81 207.57C24.81 206.515 25.1413 205.643 25.804 204.952C26.476 204.261 27.3206 203.916 28.338 203.916C29.3553 203.916 30.1953 204.261 30.858 204.952C31.53 205.643 31.866 206.515 31.866 207.57C31.866 208.634 31.53 209.507 30.858 210.188C30.1953 210.879 29.3553 211.224 28.338 211.224C27.3206 211.224 26.476 210.879 25.804 210.188C25.1413 209.497 24.81 208.625 24.81 207.57ZM26.098 207.57C26.098 208.307 26.3126 208.905 26.742 209.362C27.1713 209.819 27.7033 210.048 28.338 210.048C28.9726 210.048 29.5046 209.819 29.934 209.362C30.3633 208.905 30.578 208.307 30.578 207.57C30.578 206.842 30.3633 206.249 29.934 205.792C29.4953 205.325 28.9633 205.092 28.338 205.092C27.7126 205.092 27.1806 205.325 26.742 205.792C26.3126 206.249 26.098 206.842 26.098 207.57ZM34.1872 211H32.8992V204.14H34.1312V205.26H34.1872C34.3179 204.896 34.5839 204.588 34.9852 204.336C35.3959 204.075 35.7972 203.944 36.1892 203.944C36.5626 203.944 36.8799 204 37.1412 204.112L36.7492 205.358C36.5906 205.293 36.3386 205.26 35.9932 205.26C35.5079 205.26 35.0832 205.456 34.7192 205.848C34.3646 206.24 34.1872 206.697 34.1872 207.22V211ZM44.0875 211H42.5335L40.3915 207.766L39.3415 208.802V211H38.0535V200.976H39.3415V207.15L42.3095 204.14H43.9615V204.196L41.2875 206.856L44.0875 210.944V211ZM46.6131 210.132C46.6131 210.393 46.5198 210.617 46.3331 210.804C46.1558 210.991 45.9318 211.084 45.6611 211.084C45.3998 211.084 45.1758 210.991 44.9891 210.804C44.8024 210.617 44.7091 210.393 44.7091 210.132C44.7091 209.861 44.8024 209.637 44.9891 209.46C45.1758 209.273 45.3998 209.18 45.6611 209.18C45.9318 209.18 46.1558 209.273 46.3331 209.46C46.5198 209.637 46.6131 209.861 46.6131 210.132Z" fill="#6D6D6D"/>
    </g>
    <defs>
        <filter id="filter0_i_7_16373" x="0" y="0" width="151" height="232" filterUnits="userSpaceOnUse" color-interpolation-filters="sRGB">
            <feFlood flood-opacity="0" result="BackgroundImageFix"/>
            <feBlend mode="normal" in="SourceGraphic" in2="BackgroundImageFix" result="shape"/>
            <feColorMatrix in="SourceAlpha" type="matrix" values="0 0 0 0 0 0 0 0 0 0 0 0 0 0 0 0 0 0 127 0" result="hardAlpha"/>
            <feOffset/>
            <feGaussianBlur stdDeviation="7.5"/>
            <feComposite in2="hardAlpha" operator="arithmetic" k2="-1" k3="1"/>
            <feColorMatrix type="matrix" values="0 0 0 0 0.703846 0 0 0 0 0.767427 0 0 0 0 1 0 0 0 0.43 0"/>
            <feBlend mode="normal" in2="shape" result="effect1_innerShadow_7_16373"/>
        </filter>
    </defs>
</svg>
