<svg width="22" height="23" viewBox="0 0 22 23" fill="none" xmlns="http://www.w3.org/2000/svg">
    <path d="M21.6365 6.55859C21.5268 6.49716 21.4033 6.46797 21.2791 6.47414C21.1548 6.48031 21.0345 6.52161 20.9309 6.59363L17.875 8.71934V6.46875C17.875 6.0875 17.7301 5.72187 17.4723 5.45228C17.2144 5.1827 16.8647 5.03125 16.5 5.03125H2.75C2.38533 5.03125 2.03559 5.1827 1.77773 5.45228C1.51987 5.72187 1.375 6.0875 1.375 6.46875V16.5312C1.375 16.9125 1.51987 17.2781 1.77773 17.5477C2.03559 17.8173 2.38533 17.9688 2.75 17.9688H16.5C16.8647 17.9688 17.2144 17.8173 17.4723 17.5477C17.7301 17.2781 17.875 16.9125 17.875 16.5312V14.2852L20.9309 16.4154C21.0444 16.4924 21.1772 16.5327 21.3125 16.5312C21.4948 16.5312 21.6697 16.4555 21.7986 16.3207C21.9276 16.1859 22 16.0031 22 15.8125V7.1875C21.9991 7.05818 21.9649 6.9315 21.9009 6.82081C21.837 6.71012 21.7456 6.61954 21.6365 6.55859ZM16.5 16.5312H2.75V6.46875H16.5V16.5312ZM20.625 14.4693L17.875 12.553V10.447L20.625 8.53516V14.4693Z" fill="black"/>
</svg>
