<svg width="17" height="19" viewBox="0 0 17 19" fill="none" xmlns="http://www.w3.org/2000/svg">
    <path d="M15.8125 2.875H12.375V2.15625C12.375 1.58438 12.1577 1.03593 11.7709 0.631551C11.3841 0.227176 10.8595 0 10.3125 0H6.1875C5.64049 0 5.11589 0.227176 4.72909 0.631551C4.3423 1.03593 4.125 1.58438 4.125 2.15625V2.875H0.6875C0.505164 2.875 0.330295 2.95073 0.201364 3.08552C0.072433 3.22031 0 3.40313 0 3.59375C0 3.78437 0.072433 3.96719 0.201364 4.10198C0.330295 4.23677 0.505164 4.3125 0.6875 4.3125H1.375V17.25C1.375 17.6312 1.51987 17.9969 1.77773 18.2665C2.03559 18.536 2.38533 18.6875 2.75 18.6875H13.75C14.1147 18.6875 14.4644 18.536 14.7223 18.2665C14.9801 17.9969 15.125 17.6312 15.125 17.25V4.3125H15.8125C15.9948 4.3125 16.1697 4.23677 16.2986 4.10198C16.4276 3.96719 16.5 3.78437 16.5 3.59375C16.5 3.40313 16.4276 3.22031 16.2986 3.08552C16.1697 2.95073 15.9948 2.875 15.8125 2.875ZM5.5 2.15625C5.5 1.96563 5.57243 1.78281 5.70136 1.64802C5.8303 1.51323 6.00516 1.4375 6.1875 1.4375H10.3125C10.4948 1.4375 10.6697 1.51323 10.7986 1.64802C10.9276 1.78281 11 1.96563 11 2.15625V2.875H5.5V2.15625ZM13.75 17.25H2.75V4.3125H13.75V17.25ZM6.875 7.90625V13.6562C6.875 13.8469 6.80257 14.0297 6.67364 14.1645C6.5447 14.2993 6.36984 14.375 6.1875 14.375C6.00516 14.375 5.8303 14.2993 5.70136 14.1645C5.57243 14.0297 5.5 13.8469 5.5 13.6562V7.90625C5.5 7.71563 5.57243 7.53281 5.70136 7.39802C5.8303 7.26323 6.00516 7.1875 6.1875 7.1875C6.36984 7.1875 6.5447 7.26323 6.67364 7.39802C6.80257 7.53281 6.875 7.71563 6.875 7.90625ZM11 7.90625V13.6562C11 13.8469 10.9276 14.0297 10.7986 14.1645C10.6697 14.2993 10.4948 14.375 10.3125 14.375C10.1302 14.375 9.95529 14.2993 9.82636 14.1645C9.69743 14.0297 9.625 13.8469 9.625 13.6562V7.90625C9.625 7.71563 9.69743 7.53281 9.82636 7.39802C9.95529 7.26323 10.1302 7.1875 10.3125 7.1875C10.4948 7.1875 10.6697 7.26323 10.7986 7.39802C10.9276 7.53281 11 7.71563 11 7.90625Z" fill="#CC3333"/>
</svg>
