<svg width="22" height="23" viewBox="0 0 22 23" fill="none" xmlns="http://www.w3.org/2000/svg">
    <path d="M2.75 10.0625V4.3125C2.75 4.12188 2.82243 3.93906 2.95136 3.80427C3.08029 3.66947 3.25516 3.59375 3.4375 3.59375H18.5625C18.7448 3.59375 18.9197 3.66947 19.0486 3.80427C19.1776 3.93906 19.25 4.12188 19.25 4.3125V10.0625C19.25 10.2531 19.1776 10.4359 19.0486 10.5707C18.9197 10.7055 18.7448 10.7812 18.5625 10.7812C18.3802 10.7812 18.2053 10.7055 18.0764 10.5707C17.9474 10.4359 17.875 10.2531 17.875 10.0625V5.03125H4.125V10.0625C4.125 10.2531 4.05257 10.4359 3.92364 10.5707C3.79471 10.7055 3.61984 10.7812 3.4375 10.7812C3.25516 10.7812 3.08029 10.7055 2.95136 10.5707C2.82243 10.4359 2.75 10.2531 2.75 10.0625ZM11.4864 9.55398C11.4226 9.48716 11.3467 9.43414 11.2633 9.39797C11.1798 9.3618 11.0903 9.34319 11 9.34319C10.9097 9.34319 10.8202 9.3618 10.7367 9.39797C10.6533 9.43414 10.5774 9.48716 10.5136 9.55398L7.07609 13.1477C7.01222 13.2145 6.96155 13.2938 6.92698 13.381C6.89241 13.4683 6.87462 13.5618 6.87462 13.6562C6.87462 13.7507 6.89241 13.8442 6.92698 13.9315C6.96155 14.0187 7.01222 14.098 7.07609 14.1648C7.13997 14.2315 7.2158 14.2845 7.29926 14.3207C7.38272 14.3568 7.47217 14.3754 7.5625 14.3754C7.65283 14.3754 7.74228 14.3568 7.82574 14.3207C7.9092 14.2845 7.98503 14.2315 8.04891 14.1648L10.3125 11.7974V20.125C10.3125 20.3156 10.3849 20.4984 10.5139 20.6332C10.6428 20.768 10.8177 20.8438 11 20.8438C11.1823 20.8438 11.3572 20.768 11.4861 20.6332C11.6151 20.4984 11.6875 20.3156 11.6875 20.125V11.7974L13.9511 14.1648C14.0801 14.2996 14.2551 14.3754 14.4375 14.3754C14.6199 14.3754 14.7949 14.2996 14.9239 14.1648C15.0529 14.0299 15.1254 13.847 15.1254 13.6562C15.1254 13.4655 15.0529 13.2826 14.9239 13.1477L11.4864 9.55398Z" fill="black"/>
</svg>
