<svg width="19" height="21" viewBox="0 0 19 21" fill="none" xmlns="http://www.w3.org/2000/svg">
<path d="M18.4019 5.16601C18.2253 5.25743 18.0197 5.27502 17.8302 5.2149C17.6407 5.15477 17.4828 5.02187 17.3912 4.84539C16.6754 3.43116 15.5918 2.23585 14.2544 1.38507C14.171 1.3325 14.0988 1.26403 14.042 1.18357C13.9851 1.1031 13.9446 1.01222 13.9228 0.916114C13.9011 0.820005 13.8984 0.720551 13.9151 0.623429C13.9318 0.526308 13.9674 0.433421 14.02 0.350073C14.0726 0.266725 14.141 0.194547 14.2215 0.137661C14.302 0.0807744 14.3928 0.0402937 14.489 0.0185299C14.5851 -0.00323379 14.6845 -0.00585442 14.7816 0.0108177C14.8788 0.0274898 14.9717 0.0631282 15.055 0.115698C16.6137 1.1137 17.8793 2.50779 18.7225 4.15539C18.8139 4.33193 18.8315 4.53756 18.7714 4.72707C18.7113 4.91657 18.5784 5.07446 18.4019 5.16601ZM0.749686 5.25039C0.887089 5.25033 1.02184 5.21253 1.13922 5.1411C1.2566 5.06968 1.35211 4.96739 1.41531 4.84539C2.13119 3.43116 3.21477 2.23585 4.55219 1.38507C4.63553 1.3325 4.70771 1.26403 4.7646 1.18357C4.82149 1.1031 4.86197 1.01222 4.88373 0.916114C4.90549 0.820005 4.90811 0.720551 4.89144 0.623429C4.87477 0.526308 4.83913 0.433421 4.78656 0.350073C4.73399 0.266725 4.66552 0.194547 4.58506 0.137661C4.50459 0.0807744 4.41371 0.0402937 4.3176 0.0185299C4.22149 -0.00323379 4.12204 -0.00585442 4.02492 0.0108177C3.9278 0.0274898 3.83491 0.0631282 3.75156 0.115698C2.19288 1.1137 0.927229 2.50779 0.084061 4.15539C0.0248465 4.26968 -0.00395245 4.3973 0.000436032 4.52595C0.00482451 4.65461 0.0422526 4.77996 0.109118 4.88996C0.175984 4.99996 0.270036 5.0909 0.382224 5.15402C0.494412 5.21715 0.620959 5.25033 0.749686 5.25039ZM18.1966 14.9948C18.3294 15.2226 18.3999 15.4815 18.4008 15.7452C18.4017 16.009 18.333 16.2683 18.2017 16.4971C18.0704 16.7259 17.8811 16.9159 17.6529 17.0482C17.4247 17.1805 17.1656 17.2502 16.9019 17.2504H13.0769C12.9047 18.0981 12.4448 18.8602 11.7751 19.4077C11.1053 19.9551 10.2669 20.2541 9.40187 20.2541C8.53686 20.2541 7.69844 19.9551 7.02868 19.4077C6.35892 18.8602 5.89901 18.0981 5.72687 17.2504H1.90187C1.63827 17.2499 1.37946 17.1799 1.1515 17.0475C0.923554 16.9151 0.734517 16.725 0.603435 16.4963C0.472353 16.2676 0.403856 16.0084 0.404844 15.7448C0.405832 15.4812 0.476269 15.2225 0.609061 14.9948C1.45375 13.5369 1.90187 11.4641 1.90187 9.00039C1.90187 7.01126 2.69205 5.10361 4.09857 3.69708C5.5051 2.29056 7.41275 1.50039 9.40187 1.50039C11.391 1.50039 13.2987 2.29056 14.7052 3.69708C16.1117 5.10361 16.9019 7.01126 16.9019 9.00039C16.9019 11.4632 17.35 13.536 18.1966 14.9948ZM11.5225 17.2504H7.28125C7.43663 17.6886 7.72395 18.0679 8.10369 18.3361C8.48343 18.6044 8.93694 18.7484 9.40187 18.7484C9.86681 18.7484 10.3203 18.6044 10.7001 18.3361C11.0798 18.0679 11.3671 17.6886 11.5225 17.2504Z" fill="black"/>
</svg>
