<?xml version="1.0" encoding="UTF-8"?>
<svg version="1.1" xmlns="http://www.w3.org/2000/svg" width="1040" height="1040">
    <path d="M0 0 C343.2 0 686.4 0 1040 0 C1040 343.2 1040 686.4 1040 1040 C696.8 1040 353.6 1040 0 1040 C0 696.8 0 353.6 0 0 Z " fill="#FFFFFF" transform="translate(0,0)"/>
    <path d="M0 0 C0.495 1.98 0.495 1.98 1 4 C0.33355469 4.268125 -0.33289063 4.53625 -1.01953125 4.8125 C-20.25286533 12.99002945 -32.02773612 26.36804494 -39.77734375 45.56640625 C-46.48521196 64.40415754 -44.77057297 86.28906921 -36.5078125 104.2421875 C-33.94027266 109.25753734 -31.29419514 113.33730414 -27 117 C-26.74347656 116.39414062 -26.48695313 115.78828125 -26.22265625 115.1640625 C-21.39495529 104.598387 -14.77663145 96.80705324 -4.05078125 91.99609375 C3.8266474 89.42407799 11.57336014 90.50422811 19 94 C23.43197574 96.85616214 26.90103829 100.66623697 28.58203125 105.765625 C29.71389407 111.81633091 30.43312144 118.85482745 27.8359375 124.5546875 C26.35067537 126.57312065 24.82174059 128.28260732 23 130 C22.21625 130.763125 21.4325 131.52625 20.625 132.3125 C14.33860735 136.35375242 8.45109656 137.53484633 1.125 137.4375 C-0.05690918 137.42831543 -0.05690918 137.42831543 -1.26269531 137.41894531 C-10.43212932 137.17336921 -16.49909608 134.10061467 -24 129 C-23.28670329 157.817187 -13.52373947 183.40727317 7 204 C7.80953125 204.81855469 8.6190625 205.63710938 9.453125 206.48046875 C12.07536768 209.07455852 14.73329987 211.61642286 17.4375 214.125 C18.34371094 214.97320312 19.24992187 215.82140625 20.18359375 216.6953125 C22.99644601 218.99709174 25.6965086 220.51123952 29 222 C29.09796875 220.71996094 29.1959375 219.43992187 29.296875 218.12109375 C29.89123696 212.80820442 31.425403 208.06752102 33.25 203.0625 C33.56283936 202.18513184 33.87567871 201.30776367 34.19799805 200.40380859 C36.14167504 195.05459469 38.29624274 189.93805624 41 184.921875 C42.32426544 182.37680236 43.20371161 179.75081445 44 177 C44.66 177 45.32 177 46 177 C46.13607666 176.41299316 46.27215332 175.82598633 46.41235352 175.22119141 C48.36891645 167.75864564 51.77664394 161.82557639 55.9375 155.375 C56.60845703 154.32393066 57.27941406 153.27286133 57.97070312 152.18994141 C66.56748169 138.85595414 75.19731462 127.19289372 87.04296875 116.59765625 C92.08373469 112.0777821 96.80583402 107.24710049 101.54589844 102.41601562 C104.40257775 99.5225424 107.24757723 96.72921188 110.40234375 94.16015625 C113.03472959 92.26534748 113.03472959 92.26534748 114 90 C114.66 90 115.32 90 116 90 C116.33 89.01 116.66 88.02 117 87 C118.40429688 85.71655273 118.40429688 85.71655273 120.21875 84.43359375 C120.89518555 83.95301514 121.57162109 83.47243652 122.26855469 82.97729492 C123.00493164 82.4691626 123.74130859 81.96103027 124.5 81.4375 C125.63937012 80.64339722 125.63937012 80.64339722 126.80175781 79.83325195 C134.61998401 74.45600676 142.72074305 69.62772478 151 65 C151.62487305 64.6503418 152.24974609 64.30068359 152.89355469 63.94042969 C158.82559763 60.64130855 164.73533996 57.62064697 171 55 C172.0415625 54.55140625 173.083125 54.1028125 174.15625 53.640625 C190.1730072 46.97945028 206.87416944 41.8274621 224 39 C225.1130249 38.80712402 225.1130249 38.80712402 226.24853516 38.61035156 C275.97166807 29.99721462 332.87140894 34.34678626 377.87451172 58.85791016 C380.30608178 60.1644671 382.7618638 61.41734379 385.22265625 62.66796875 C394.90000215 67.60791226 404.15660807 72.66572066 413 79 C414.11221178 79.76587833 415.22554977 80.53012303 416.33984375 81.29296875 C436.89510335 95.48786255 455.1108507 112.94893309 470 133 C471.18509183 134.46029097 472.3723401 135.91883662 473.5625 137.375 C484.96554847 152.09826783 493.92348448 169.27686199 502 186 C506.58224122 184.52378449 509.86092343 181.92826589 513.4375 178.8125 C514.04513184 178.28495117 514.65276367 177.75740234 515.27880859 177.21386719 C527.43718074 166.45441199 537.66311309 154.24320285 547 141 C547.65693848 140.0723584 547.65693848 140.0723584 548.32714844 139.12597656 C554.90011158 129.76659453 560.58191605 119.98661461 565.97363281 109.90625 C566.79285351 108.38472878 567.63820836 106.87728792 568.4921875 105.375 C571.59062413 99.70465846 573.6134988 93.66322319 575.6875 87.5625 C575.98551514 86.69197998 576.28353027 85.82145996 576.59057617 84.92456055 C580.0382684 74.45208513 581.34627395 64.51030865 581.3125 53.5 C581.32861328 52.44941406 581.34472656 51.39882813 581.36132812 50.31640625 C581.36795144 39.59988379 579.70734043 29.89350807 572 22 C567.43550197 18.207277 563.16377524 16.91936973 557.3125 16.4375 C555.82169922 16.31181641 555.82169922 16.31181641 554.30078125 16.18359375 C553.16189453 16.09271484 553.16189453 16.09271484 552 16 C551.61781233 14.34385343 551.28604898 12.67542976 551 11 C552.59399326 9.40600674 554.22998725 9.7529333 556.4375 9.6875 C565.02618615 9.81002049 572.03870392 13.08385008 578.25 18.95703125 C585.95471663 27.9516 588.55398763 40.0905847 588.375 51.625 C588.35977295 53.06613159 588.35977295 53.06613159 588.34423828 54.53637695 C588.16350681 62.93898924 587.16356089 70.8570022 585 79 C584.80132324 79.74846191 584.60264648 80.49692383 584.39794922 81.26806641 C581.20606925 92.90468049 576.77513162 103.43076874 571 114 C570.47599609 114.98347412 570.47599609 114.98347412 569.94140625 115.98681641 C562.33035928 130.27146912 553.38878817 143.58076556 543 156 C542.22785156 156.95648438 541.45570313 157.91296875 540.66015625 158.8984375 C535.23061322 165.55646422 529.42762892 171.77860275 523.375 177.875 C522.682854 178.57633057 521.99070801 179.27766113 521.27758789 180.00024414 C516.48533765 184.76418812 511.42003766 188.96777018 506 193 C506.64346604 196.53231079 507.54069689 199.85564975 508.671875 203.26171875 C521.44243143 242.57621408 525.93500741 283.08638865 519 324 C518.85014648 324.93666504 518.70029297 325.87333008 518.54589844 326.83837891 C516.56425533 339.19735266 513.85415155 351.09003989 510 363 C510.89976562 363.12246094 511.79953125 363.24492188 512.7265625 363.37109375 C522.66669643 365.28083309 530.24034913 372.69545635 535.8125 380.8125 C541.8945677 391.476666 542.96688639 405.18790446 540.30859375 417.09765625 C536.29591905 427.96041997 527.57971701 437.76185683 517.29296875 443 C507.29296524 447.36115996 494.16670196 447.82116434 483.875 444.25 C479.89055312 442.57485717 476.5280833 440.46965831 473 438 C472.01 438 471.02 438 470 438 C468.25420175 439.78952002 468.25420175 439.78952002 466.625 442.125 C466.01785156 442.94097656 465.41070313 443.75695312 464.78515625 444.59765625 C464.19605469 445.39042969 463.60695313 446.18320312 463 447 C461.36002385 449.02440946 459.68299423 451.01100682 458 453 C464.18659512 469.56504207 478.48884741 483.51277993 494.26171875 491.0859375 C511.53618188 498.48530496 529.34277278 499.4208099 547 493 C551.11123272 491.18103473 555.06166756 489.16391892 559 487 C559.72832031 486.69320313 560.45664062 486.38640625 561.20703125 486.0703125 C563.50201631 484.70032142 563.96256638 483.43260298 565 481 C566.23094012 478.9799957 567.50526995 476.99177373 568.78125 475 C569.1834375 474.34 569.585625 473.68 570 473 C570.55300781 472.15695312 570.55300781 472.15695312 571.1171875 471.296875 C572.49854769 467.70289363 572.47295818 464.07005066 572.625 460.25 C572.66367187 459.45722656 572.70234375 458.66445313 572.7421875 457.84765625 C572.836108 455.89880584 572.91912822 453.94943549 573 452 C574.32 452 575.64 452 577 452 C579.36777052 454.36777052 578.43307273 460.49667415 578.45092773 463.78686523 C578.24021018 473.73763436 574.49503117 480.65074814 567.75 487.875 C552.68725712 501.8491749 535.51683705 503.76688272 515.81933594 503.13916016 C499.66666415 502.34187726 484.7732624 494.90396855 473 484 C472.51547363 483.55640137 472.03094727 483.11280273 471.53173828 482.65576172 C464.54196851 476.19575214 458.36749687 469.58120865 454 461 C454 460.34 454 459.68 454 459 C449.60035211 461.32495155 446.45011884 464.4311248 443.0625 468 C425.9748647 485.50943112 404.79699232 498.05696473 383.5625 509.875 C382.73419678 510.3395459 381.90589355 510.8040918 381.05249023 511.28271484 C376.13942576 513.98794406 371.28373176 516.14407446 366 518 C364.38023174 518.6190605 362.76182017 519.24167838 361.14453125 519.8671875 C340.52577299 527.69430272 319.81244433 531.94941229 298 535 C296.74010254 535.17797119 295.48020508 535.35594238 294.18212891 535.53930664 C289.97150797 536.05701736 285.81292702 536.16086001 281.57421875 536.16796875 C280.40326912 536.17445686 280.40326912 536.17445686 279.20866394 536.18107605 C276.70154623 536.19111791 274.19463363 536.19127121 271.6875 536.1875 C270.82908508 536.18623108 269.97067017 536.18496216 269.08624268 536.18365479 C213.18045873 536.02553319 161.13651735 517.17741909 116.625 483.5625 C116.07126709 483.1495166 115.51753418 482.7365332 114.94702148 482.31103516 C112.2832143 480.25686182 111.08960459 479.26881376 110 476 C109.42467529 475.87093262 108.84935059 475.74186523 108.2565918 475.60888672 C104.92588452 474.71017592 103.31411648 472.68554448 100.89453125 470.2578125 C100.41102707 469.77480682 99.92752289 469.29180115 99.42936707 468.79415894 C98.40462455 467.76707703 97.38357113 466.7363031 96.3659668 465.70214844 C94.84361844 464.15659282 93.30881375 462.62438779 91.77148438 461.09375 C65.09994455 434.34736678 43.99998918 399.69049189 32 363.875 C31.6596875 362.85962158 31.319375 361.84424316 30.96875 360.7980957 C27.1607924 349.00911334 23 335.48686065 23 323 C18.82051556 322.45484986 17.33241619 322.75350318 13.88671875 325.30859375 C12.80513047 326.33580984 11.73931757 327.37982051 10.6875 328.4375 C10.11845947 328.98954102 9.54941895 329.54158203 8.96313477 330.11035156 C7.82022235 331.22275833 6.68328393 332.34133957 5.55273438 333.46630859 C4.25325178 334.74985413 2.91950516 335.99858636 1.578125 337.23828125 C-21.6806329 359.09642052 -36.5539879 390.15831134 -43 421 C-43.176521 421.76038574 -43.35304199 422.52077148 -43.53491211 423.30419922 C-44.42068453 428.43842445 -44.22557376 433.65498417 -44.24023438 438.8527832 C-44.2498259 440.90033422 -44.28083162 442.94682959 -44.3125 444.99414062 C-44.41280814 457.1567092 -42.77728666 468.76218979 -37.3125 479.75 C-36.96872314 480.46099854 -36.62494629 481.17199707 -36.27075195 481.90454102 C-32.77101116 488.88892724 -28.58876058 495.60749295 -22 500 C-22 501.32 -22 502.64 -22 504 C-24.94945139 504.27045142 -26.50751144 504.33701668 -28.9921875 502.63671875 C-40.74499671 490.46939137 -46.43933999 476.35978924 -50 460 C-50.17273438 459.23147705 -50.34546875 458.4629541 -50.5234375 457.67114258 C-53.0471082 443.52591657 -51.4650346 427.84513826 -48 414 C-47.73316406 412.79988281 -47.46632812 411.59976562 -47.19140625 410.36328125 C-40.55816613 382.62159703 -24.9089415 355.33709078 -5 335 C-4.43877441 334.41976074 -3.87754883 333.83952148 -3.29931641 333.24169922 C12.38805643 317.05553579 12.38805643 317.05553579 19 313 C19.66 313 20.32 313 21 313 C20.92998779 312.39808838 20.85997559 311.79617676 20.7878418 311.17602539 C19.89079118 302.59654131 19.80082524 294.05241435 19.8125 285.4375 C19.81277191 284.68399261 19.81304382 283.93048523 19.81332397 283.15414429 C19.83879025 267.81346138 21.09788104 253.2430418 24.31640625 238.234375 C24.96497511 235.16571778 25.50728387 232.09707284 26 229 C24.99582031 228.21238281 23.99164063 227.42476562 22.95703125 226.61328125 C8.91209153 215.48127653 -3.23757795 204.10301818 -13 189 C-13.42941895 188.35047363 -13.85883789 187.70094727 -14.30126953 187.03173828 C-24.50894019 171.44054438 -30.65083442 154.98099485 -29.6796875 136.19970703 C-29.14323201 127.9114816 -29.14323201 127.9114816 -31.49609375 120.1640625 C-33.48308908 118.09075192 -33.48308908 118.09075192 -35.703125 116.19921875 C-46.26618578 106.08526769 -50.01320111 89.20492812 -50.41723633 75.15673828 C-50.59264758 51.61781679 -43.56367541 30.96724977 -27.046875 13.875 C-19.72480352 6.69725319 -10.60808683 -0.49339939 0 0 Z " fill="#3195F4" transform="translate(249,237)"/>
    <path d="M0 0 C6.65805853 3.78618469 11.3558357 8.62296472 13.80078125 16.0234375 C15.23869449 23.72366446 15.47248758 33.051486 11.73828125 40.09765625 C9.10536387 43.84736378 6.01297301 47.13034617 2.859375 50.4453125 C0.36124519 53.10973794 -1.93797404 55.8482488 -4.21875 58.69921875 C-7.44068317 62.69396129 -10.78782611 66.50723984 -14.28125 70.26171875 C-18.59121438 74.89420255 -22.63186168 79.68294108 -26.6015625 84.61328125 C-28.75882399 87.23446994 -30.99436 89.75326156 -33.28125 92.26171875 C-36.39583668 95.67911247 -39.3731162 99.16694225 -42.28125 102.76171875 C-45.1893838 106.35649525 -48.16666332 109.84432503 -51.28125 113.26171875 C-55.10295863 117.45900909 -58.69599189 121.79882106 -62.265625 126.2109375 C-65.21049949 129.78228374 -68.23841976 133.27386362 -71.28125 136.76171875 C-75.01540168 141.04378167 -78.70584104 145.3450371 -82.28125 149.76171875 C-87.40083286 156.07711658 -92.74555676 162.19077575 -98.08740234 168.31787109 C-100.84471705 171.48214605 -103.59450468 174.65293292 -106.34375 177.82421875 C-106.87935547 178.44159912 -107.41496094 179.05897949 -107.96679688 179.69506836 C-112.18008994 184.5560215 -116.3597341 189.44517434 -120.53662109 194.33740234 C-124.16009744 198.56860983 -127.87415807 202.70809675 -131.63671875 206.81640625 C-133.97536965 209.48306465 -136.11408491 212.26701008 -138.28125 215.07421875 C-142.93734134 220.84940573 -147.80331121 223.93573915 -154.78125 226.26171875 C-163.56012316 227.1235997 -170.56034087 226.55477062 -177.78125 221.26171875 C-182.97044457 216.65549889 -187.6104917 211.6202562 -192.16015625 206.390625 C-195.68857234 202.3380966 -199.3401919 198.41588085 -203.03125 194.51171875 C-209.83211338 187.2881602 -216.55281126 179.99704068 -223.23681641 172.66503906 C-228.57930897 166.8100147 -233.95630853 161.0223548 -239.59375 155.44921875 C-257.20095507 137.918016 -257.20095507 137.918016 -257.34375 124.13671875 C-257.23793971 118.04345695 -256.46679886 113.20397935 -252.78125 108.26171875 C-252.03875 107.20984375 -251.29625 106.15796875 -250.53125 105.07421875 C-244.1123885 98.50947403 -238.17899671 96.1391194 -229.09375 95.94921875 C-227.93488281 95.91183594 -226.77601563 95.87445313 -225.58203125 95.8359375 C-216.42109875 96.8621879 -210.82488258 101.49163166 -204.65625 108.01171875 C-203.99238281 108.68976563 -203.32851563 109.3678125 -202.64453125 110.06640625 C-198.72605552 114.09990573 -194.99367628 118.2702763 -191.31298828 122.52050781 C-189.55015986 124.52441159 -187.70101279 126.40815467 -185.78125 128.26171875 C-183.2019994 130.80144061 -180.75907611 133.38623189 -178.40625 136.13671875 C-174.77098177 140.37786502 -170.81631264 144.26073617 -166.8203125 148.16015625 C-164.78125 150.26171875 -164.78125 150.26171875 -163.78125 152.26171875 C-159.42960504 151.83568358 -157.30905355 148.98951175 -154.59375 145.88671875 C-153.87082764 145.07968506 -153.87082764 145.07968506 -153.13330078 144.25634766 C-149.27595555 139.91572145 -145.60242594 135.43285897 -141.9609375 130.91015625 C-139.80367601 128.28896756 -137.56814 125.77017594 -135.28125 123.26171875 C-132.18569804 119.86573193 -129.22973793 116.40000344 -126.34375 112.82421875 C-122.48299863 108.05031575 -118.40687925 103.52783447 -114.25 99.01171875 C-111.83746896 96.32434241 -109.5486879 93.57206431 -107.28125 90.76171875 C-104.22776321 86.97711541 -101.07456699 83.33964338 -97.78125 79.76171875 C-93.66746091 75.29186755 -89.81037703 70.67126982 -85.99609375 65.9453125 C-83.82492173 63.31463318 -81.57883643 60.78229451 -79.28125 58.26171875 C-76.16666332 54.84432503 -73.1893838 51.35649525 -70.28125 47.76171875 C-66.67092558 43.29895662 -62.89697071 39.03452342 -59.03125 34.79296875 C-56.70262947 32.17327065 -54.48562053 29.48656565 -52.28125 26.76171875 C-48.6245292 22.2449678 -44.8270519 17.89849119 -40.90234375 13.61328125 C-38.94136377 11.43922978 -37.08263428 9.20616706 -35.21875 6.94921875 C-26.07311659 -3.58211669 -12.64780797 -5.8516644 0 0 Z " fill="#E9F0FD" transform="translate(649.78125,411.73828125)"/>
    <path d="M0 0 C0.495 1.98 0.495 1.98 1 4 C0.33355469 4.268125 -0.33289063 4.53625 -1.01953125 4.8125 C-20.25286533 12.99002945 -32.02773612 26.36804494 -39.77734375 45.56640625 C-46.48521196 64.40415754 -44.77057297 86.28906921 -36.5078125 104.2421875 C-33.94027266 109.25753734 -31.29419514 113.33730414 -27 117 C-26.74347656 116.39414062 -26.48695313 115.78828125 -26.22265625 115.1640625 C-21.39495529 104.598387 -14.77663145 96.80705324 -4.05078125 91.99609375 C3.8266474 89.42407799 11.57336014 90.50422811 19 94 C23.43197574 96.85616214 26.90103829 100.66623697 28.58203125 105.765625 C29.71389407 111.81633091 30.43312144 118.85482745 27.8359375 124.5546875 C26.35067537 126.57312065 24.82174059 128.28260732 23 130 C22.21625 130.763125 21.4325 131.52625 20.625 132.3125 C14.33860735 136.35375242 8.45109656 137.53484633 1.125 137.4375 C-0.05690918 137.42831543 -0.05690918 137.42831543 -1.26269531 137.41894531 C-10.43212932 137.17336921 -16.49909608 134.10061467 -24 129 C-23.28670329 157.817187 -13.52373947 183.40727317 7 204 C7.80953125 204.81855469 8.6190625 205.63710938 9.453125 206.48046875 C12.07536768 209.07455852 14.73329987 211.61642286 17.4375 214.125 C18.34371094 214.97320312 19.24992187 215.82140625 20.18359375 216.6953125 C22.99644601 218.99709174 25.6965086 220.51123952 29 222 C29.09796875 220.71996094 29.1959375 219.43992187 29.296875 218.12109375 C29.89123696 212.80820442 31.425403 208.06752102 33.25 203.0625 C33.56283936 202.18513184 33.87567871 201.30776367 34.19799805 200.40380859 C36.14167504 195.05459469 38.29624274 189.93805624 41 184.921875 C42.32426544 182.37680236 43.20371161 179.75081445 44 177 C44.66 177 45.32 177 46 177 C46.13607666 176.41299316 46.27215332 175.82598633 46.41235352 175.22119141 C48.36891645 167.75864564 51.77664394 161.82557639 55.9375 155.375 C56.60845703 154.32393066 57.27941406 153.27286133 57.97070312 152.18994141 C66.56748169 138.85595414 75.19731462 127.19289372 87.04296875 116.59765625 C92.08373469 112.0777821 96.80583402 107.24710049 101.54589844 102.41601562 C104.40257775 99.5225424 107.24757723 96.72921188 110.40234375 94.16015625 C113.03472959 92.26534748 113.03472959 92.26534748 114 90 C114.66 90 115.32 90 116 90 C116.33 89.01 116.66 88.02 117 87 C118.40429688 85.71655273 118.40429688 85.71655273 120.21875 84.43359375 C120.89518555 83.95301514 121.57162109 83.47243652 122.26855469 82.97729492 C123.00493164 82.4691626 123.74130859 81.96103027 124.5 81.4375 C125.63937012 80.64339722 125.63937012 80.64339722 126.80175781 79.83325195 C134.61998401 74.45600676 142.72074305 69.62772478 151 65 C151.62487305 64.6503418 152.24974609 64.30068359 152.89355469 63.94042969 C158.82559763 60.64130855 164.73533996 57.62064697 171 55 C172.0415625 54.55140625 173.083125 54.1028125 174.15625 53.640625 C190.1730072 46.97945028 206.87416944 41.8274621 224 39 C225.1130249 38.80712402 225.1130249 38.80712402 226.24853516 38.61035156 C275.97166807 29.99721462 332.87140894 34.34678626 377.87451172 58.85791016 C380.30608178 60.1644671 382.7618638 61.41734379 385.22265625 62.66796875 C394.90000215 67.60791226 404.15660807 72.66572066 413 79 C414.11221178 79.76587833 415.22554977 80.53012303 416.33984375 81.29296875 C422.72080699 85.70210175 428.82821379 90.36413966 434.75 95.375 C435.64501221 96.12475098 435.64501221 96.12475098 436.55810547 96.88964844 C439.4329568 99.37007653 441.58906234 101.44939862 443 105 C443.97581759 106.35113205 444.97029741 107.68946944 446 109 C442.27020304 109 441.96936365 108.2926831 439.375 105.75 C419.16693047 87.18753874 392.49866085 72.76604339 367 63 C366.2997168 62.72881348 365.59943359 62.45762695 364.87792969 62.17822266 C341.0814509 53.06823706 302.9268572 39.96705378 277.11865234 46.47436523 C274.28681307 47.17694071 271.55072033 47.25778504 268.63671875 47.39453125 C266.73539185 47.49350708 266.73539185 47.49350708 264.7956543 47.59448242 C263.79107681 47.64673477 263.79107681 47.64673477 262.76620483 47.70004272 C216.95263628 50.17854232 172.40435503 63.89664289 135 91 C134.15816162 91.60859863 134.15816162 91.60859863 133.29931641 92.22949219 C111.87335464 107.87857287 89.31542322 128.54170579 75 151 C74.2584668 152.12027588 74.2584668 152.12027588 73.50195312 153.26318359 C64.28367489 167.19954424 56.84886008 181.77483623 50 197 C49.67418945 197.71317383 49.34837891 198.42634766 49.01269531 199.16113281 C40.69558908 217.56596052 35.99949217 238.09072407 33 258 C32.88285645 258.77005371 32.76571289 259.54010742 32.64501953 260.33349609 C29.03729407 285.61973832 28.80381794 313.96552072 34 339 C34.20931152 340.01336426 34.41862305 341.02672852 34.63427734 342.07080078 C37.1221204 353.77405119 39.99582385 365.21339601 44.5078125 376.30859375 C45.54694945 378.87923359 46.51861503 381.42129058 47.4296875 384.03515625 C50.26741146 392.11939226 53.66506781 399.36758291 58.07421875 406.7109375 C59.83233025 409.71363503 61.33969617 412.72566155 62.8125 415.875 C66.66634964 423.79739843 71.89851329 430.84702575 77 438 C76.01 438.99 75.02 439.98 74 441 C56.47861703 417.71330903 41.29442559 391.61539371 32 363.875 C31.6596875 362.85962158 31.319375 361.84424316 30.96875 360.7980957 C27.1607924 349.00911334 23 335.48686065 23 323 C18.82051556 322.45484986 17.33241619 322.75350318 13.88671875 325.30859375 C12.80513047 326.33580984 11.73931757 327.37982051 10.6875 328.4375 C10.11845947 328.98954102 9.54941895 329.54158203 8.96313477 330.11035156 C7.82022235 331.22275833 6.68328393 332.34133957 5.55273438 333.46630859 C4.25325178 334.74985413 2.91950516 335.99858636 1.578125 337.23828125 C-21.6806329 359.09642052 -36.5539879 390.15831134 -43 421 C-43.176521 421.76038574 -43.35304199 422.52077148 -43.53491211 423.30419922 C-44.42068453 428.43842445 -44.22557376 433.65498417 -44.24023438 438.8527832 C-44.2498259 440.90033422 -44.28083162 442.94682959 -44.3125 444.99414062 C-44.41280814 457.1567092 -42.77728666 468.76218979 -37.3125 479.75 C-36.96872314 480.46099854 -36.62494629 481.17199707 -36.27075195 481.90454102 C-32.77101116 488.88892724 -28.58876058 495.60749295 -22 500 C-22 501.32 -22 502.64 -22 504 C-24.94945139 504.27045142 -26.50751144 504.33701668 -28.9921875 502.63671875 C-40.74499671 490.46939137 -46.43933999 476.35978924 -50 460 C-50.17273438 459.23147705 -50.34546875 458.4629541 -50.5234375 457.67114258 C-53.0471082 443.52591657 -51.4650346 427.84513826 -48 414 C-47.73316406 412.79988281 -47.46632812 411.59976562 -47.19140625 410.36328125 C-40.55816613 382.62159703 -24.9089415 355.33709078 -5 335 C-4.43877441 334.41976074 -3.87754883 333.83952148 -3.29931641 333.24169922 C12.38805643 317.05553579 12.38805643 317.05553579 19 313 C19.66 313 20.32 313 21 313 C20.92998779 312.39808838 20.85997559 311.79617676 20.7878418 311.17602539 C19.89079118 302.59654131 19.80082524 294.05241435 19.8125 285.4375 C19.81277191 284.68399261 19.81304382 283.93048523 19.81332397 283.15414429 C19.83879025 267.81346138 21.09788104 253.2430418 24.31640625 238.234375 C24.96497511 235.16571778 25.50728387 232.09707284 26 229 C24.99582031 228.21238281 23.99164063 227.42476562 22.95703125 226.61328125 C8.91209153 215.48127653 -3.23757795 204.10301818 -13 189 C-13.42941895 188.35047363 -13.85883789 187.70094727 -14.30126953 187.03173828 C-24.50894019 171.44054438 -30.65083442 154.98099485 -29.6796875 136.19970703 C-29.14323201 127.9114816 -29.14323201 127.9114816 -31.49609375 120.1640625 C-33.48308908 118.09075192 -33.48308908 118.09075192 -35.703125 116.19921875 C-46.26618578 106.08526769 -50.01320111 89.20492812 -50.41723633 75.15673828 C-50.59264758 51.61781679 -43.56367541 30.96724977 -27.046875 13.875 C-19.72480352 6.69725319 -10.60808683 -0.49339939 0 0 Z " fill="#6DC6F9" transform="translate(249,237)"/>
    <path d="M0 0 C4.42107984 3.28672383 8.44503845 6.9107148 12.375 10.765625 C12.9525 11.31863281 13.53 11.87164062 14.125 12.44140625 C23.15108237 21.91409165 27.17296475 36.38813381 27.75 49.203125 C27.57405295 54.08334066 27.041554 66.099071 23.375 69.765625 C24.035 70.425625 24.695 71.085625 25.375 71.765625 C24.50887085 71.83293823 24.50887085 71.83293823 23.62524414 71.90161133 C-0.96587061 73.85730759 -24.24633223 78.31256778 -47.625 86.390625 C-48.43106689 86.66745117 -49.23713379 86.94427734 -50.06762695 87.22949219 C-53.75602091 88.54858769 -57.14638388 89.97848194 -60.5234375 91.97265625 C-63.625 93.765625 -63.625 93.765625 -66.25 93.828125 C-69.50750214 92.37082141 -71.24981004 90.43047227 -73.625 87.765625 C-74.099375 87.28222656 -74.57375 86.79882812 -75.0625 86.30078125 C-84.91495252 75.80689302 -89.13584919 61.88474052 -88.9765625 47.74804688 C-88.38649111 30.48845857 -80.29739528 15.90254354 -68 4.078125 C-49.24865318 -11.56035002 -20.46695075 -13.33044818 0 0 Z " fill="#EEF5FC" transform="translate(480.625,201.234375)"/>
    <path d="M0 0 C0.495 1.98 0.495 1.98 1 4 C0.33355469 4.268125 -0.33289063 4.53625 -1.01953125 4.8125 C-20.25286533 12.99002945 -32.02773612 26.36804494 -39.77734375 45.56640625 C-46.48521196 64.40415754 -44.77057297 86.28906921 -36.5078125 104.2421875 C-33.94027266 109.25753734 -31.29419514 113.33730414 -27 117 C-26.74347656 116.39414062 -26.48695313 115.78828125 -26.22265625 115.1640625 C-21.39495529 104.598387 -14.77663145 96.80705324 -4.05078125 91.99609375 C3.8266474 89.42407799 11.57336014 90.50422811 19 94 C23.43197574 96.85616214 26.90103829 100.66623697 28.58203125 105.765625 C29.71389407 111.81633091 30.43312144 118.85482745 27.8359375 124.5546875 C26.35067537 126.57312065 24.82174059 128.28260732 23 130 C22.21625 130.763125 21.4325 131.52625 20.625 132.3125 C14.33907386 136.35345252 8.45079159 137.53560627 1.125 137.4375 C0.33561035 137.43065186 -0.4537793 137.42380371 -1.26708984 137.41674805 C-10.99154059 137.14968074 -18.07786936 133.39944099 -26 128 C-26.144375 128.639375 -26.28875 129.27875 -26.4375 129.9375 C-27 132 -27 132 -28 133 C-28.23363881 134.84891946 -28.41303635 136.70488031 -28.5625 138.5625 C-28.64628906 139.57441406 -28.73007813 140.58632813 -28.81640625 141.62890625 C-28.87699219 142.41136719 -28.93757813 143.19382812 -29 144 C-29.33 144 -29.66 144 -30 144 C-29.95810547 143.410979 -29.91621094 142.82195801 -29.87304688 142.21508789 C-28.76387087 130.85177503 -28.76387087 130.85177503 -31.5 120.12890625 C-32.85491085 118.77134909 -34.25904455 117.46150893 -35.703125 116.19921875 C-46.26618578 106.08526769 -50.01320111 89.20492812 -50.41723633 75.15673828 C-50.59264758 51.61781679 -43.56367541 30.96724977 -27.046875 13.875 C-19.72480352 6.69725319 -10.60808683 -0.49339939 0 0 Z " fill="#97CAF8" transform="translate(249,237)"/>
    <path d="M0 0 C1.30453125 -0.03738281 2.6090625 -0.07476562 3.953125 -0.11328125 C9.47310537 0.50572889 12.45410792 2.84148737 16.0625 6.9375 C19.54963524 11.84531997 19.42678618 16.42047913 18.75 22.3125 C16.81195728 27.94700468 12.97571723 31.85693214 7.66015625 34.45703125 C-1.37179298 37.11206062 -10.75881753 36.57060092 -19.1875 32.4375 C-21.92167931 30.88048455 -24.02775886 29.53474114 -26.25 27.3125 C-27.01924587 20.29481835 -24.52486264 15.05326144 -20.36328125 9.58203125 C-14.47684124 3.26036462 -8.53491075 0.15898363 0 0 Z " fill="#FAFCFD" transform="translate(254.25,333.6875)"/>
    <path d="M0 0 C8.58868615 0.12252049 15.60120392 3.39635008 21.8125 9.26953125 C29.51721663 18.2641 32.11648763 30.4030847 31.9375 41.9375 C31.92734863 42.89825439 31.91719727 43.85900879 31.90673828 44.84887695 C31.72600681 53.25148924 30.72606089 61.1695022 28.5625 69.3125 C28.36382324 70.06096191 28.16514648 70.80942383 27.96044922 71.58056641 C24.76856925 83.21718049 20.33763162 93.74326874 14.5625 104.3125 C14.21316406 104.96814941 13.86382813 105.62379883 13.50390625 106.29931641 C5.89285928 120.58396912 -3.04871183 133.89326556 -13.4375 146.3125 C-14.20964844 147.26898438 -14.98179687 148.22546875 -15.77734375 149.2109375 C-21.2257796 155.89189478 -27.0512898 162.13263687 -33.125 168.25 C-33.8255249 168.95970947 -34.5260498 169.66941895 -35.24780273 170.40063477 C-39.69261172 174.81931319 -44.31721446 178.69802947 -49.4375 182.3125 C-51.4375 181.3125 -53.4375 180.3125 -55.4375 179.3125 C-54.4475 178.9825 -53.4575 178.6525 -52.4375 178.3125 C-52.4375 177.6525 -52.4375 176.9925 -52.4375 176.3125 C-50.890625 174.97265625 -50.890625 174.97265625 -48.6875 173.375 C-23.56133392 154.33284269 -5.1970523 127.76394282 9.53613281 100.21875 C10.35535351 98.69722878 11.20070836 97.18978792 12.0546875 95.6875 C15.15312413 90.01715846 17.1759988 83.97572319 19.25 77.875 C19.54801514 77.00447998 19.84603027 76.13395996 20.15307617 75.23706055 C23.6007684 64.76458513 24.90877395 54.82280865 24.875 43.8125 C24.89111328 42.76191406 24.90722656 41.71132813 24.92382812 40.62890625 C24.93045144 29.91238379 23.26984043 20.20600807 15.5625 12.3125 C10.99800197 8.519777 6.72627524 7.23186973 0.875 6.75 C-0.11886719 6.66621094 -1.11273437 6.58242187 -2.13671875 6.49609375 C-3.27560547 6.40521484 -3.27560547 6.40521484 -4.4375 6.3125 C-4.81968767 4.65635343 -5.15145102 2.98792976 -5.4375 1.3125 C-3.84350674 -0.28149326 -2.20751275 0.0654333 0 0 Z " fill="#3A87E8" transform="translate(805.4375,246.6875)"/>
    <path d="M0 0 C5.45445392 2.70873729 9.44218164 7.14842951 13 12 C14.81472751 17.44418254 15.1751135 23.22589276 12.90625 28.58203125 C9.05821965 34.75320759 4.89780305 37.70073232 -2 40 C-7.55468832 40.43566183 -12.20252966 39.85407237 -17 37 C-22.45403106 31.95580942 -25.1170879 27.89012007 -25.4375 20.375 C-25.36545695 13.75504419 -23.54060881 9.76423623 -19 5 C-13.46865663 -0.13366509 -7.39217893 -1.51938372 0 0 Z " fill="#3492F0" transform="translate(353,750)"/>
    <path d="M0 0 C0.33 0 0.66 0 1 0 C1.495 7.425 1.495 7.425 2 15 C0.02 15 -1.96 15 -4 15 C-6.36218902 16.75163578 -8.26299546 18.37657331 -10.3125 20.4375 C-10.88154053 20.98954102 -11.45058105 21.54158203 -12.03686523 22.11035156 C-13.17977765 23.22275833 -14.31671607 24.34133957 -15.44726562 25.46630859 C-16.74674822 26.74985413 -18.08049484 27.99858636 -19.421875 29.23828125 C-42.6806329 51.09642052 -57.5539879 82.15831134 -64 113 C-64.176521 113.76038574 -64.35304199 114.52077148 -64.53491211 115.30419922 C-65.42068453 120.43842445 -65.22557376 125.65498417 -65.24023438 130.8527832 C-65.2498259 132.90033422 -65.28083162 134.94682959 -65.3125 136.99414062 C-65.41280814 149.1567092 -63.77728666 160.76218979 -58.3125 171.75 C-57.96872314 172.46099854 -57.62494629 173.17199707 -57.27075195 173.90454102 C-53.77101116 180.88892724 -49.58876058 187.60749295 -43 192 C-43 193.32 -43 194.64 -43 196 C-45.94945139 196.27045142 -47.50751144 196.33701668 -49.9921875 194.63671875 C-61.74499671 182.46939137 -67.43933999 168.35978924 -71 152 C-71.17273438 151.23147705 -71.34546875 150.4629541 -71.5234375 149.67114258 C-74.0471082 135.52591657 -72.4650346 119.84513826 -69 106 C-68.59974609 104.19982422 -68.59974609 104.19982422 -68.19140625 102.36328125 C-61.55816613 74.62159703 -45.9089415 47.33709078 -26 27 C-25.43877441 26.41976074 -24.87754883 25.83952148 -24.29931641 25.24169922 C-8.61194357 9.05553579 -8.61194357 9.05553579 -2 5 C-1.34 5 -0.68 5 0 5 C0 3.35 0 1.7 0 0 Z " fill="#9AC9F5" transform="translate(270,545)"/>
    <path d="M0 0 C5.01423468 2.19716074 8.94259868 6.10738662 11.375 11.015625 C13.04721805 16.3249173 12.95543127 21.83595397 10.375 26.8125 C6.9370513 31.42658904 2.26398089 36.49710517 -3.63671875 37.40625 C-10.11053117 37.60518918 -14.43879274 37.22957648 -19.375 32.828125 C-24.01323425 27.61011147 -25.75425237 22.45139436 -25.453125 15.4609375 C-24.44161089 9.96736949 -21.36333676 6.23651474 -17.3125 2.5625 C-11.93719089 -1.06946562 -6.32794415 -0.76971484 0 0 Z " fill="#3E97F1" transform="translate(612,211)"/>
    <path d="M0 0 C1.32 0.66 2.64 1.32 4 2 C4.76764888 14.79414797 4.39425799 24.14419733 -4.05078125 34.51953125 C-13.21254237 44.33221679 -26.1600799 51.15334811 -39.66943359 52.20849609 C-63.15123531 52.96365358 -83.25392664 49.43576939 -101 33 C-101.48452637 32.55640137 -101.96905273 32.11280273 -102.46826172 31.65576172 C-109.45803149 25.19575214 -115.63250313 18.58120865 -120 10 C-120 9.34 -120 8.68 -120 8 C-120.66 7.67 -121.32 7.34 -122 7 C-120.35 5.68 -118.7 4.36 -117 3 C-114.78107995 5.61515578 -112.94597191 8.10005202 -111.3125 11.125 C-102.15805467 27.47476812 -86.6658463 38.42425595 -69.0703125 43.9140625 C-49.76430633 49.06554046 -32.37016838 45.54404856 -15 36 C-14.27167969 35.69320312 -13.54335938 35.38640625 -12.79296875 35.0703125 C-10.49798369 33.70032142 -10.03743362 32.43260298 -9 30 C-7.76905988 27.9799957 -6.49473005 25.99177373 -5.21875 24 C-4.8165625 23.34 -4.414375 22.68 -4 22 C-3.63003906 21.43667969 -3.26007813 20.87335937 -2.87890625 20.29296875 C-1.50874939 16.71838173 -1.56738356 13.11080212 -1.4375 9.3125 C-1.12115385 1.12115385 -1.12115385 1.12115385 0 0 Z " fill="#92C3F6" transform="translate(823,688)"/>
    <path d="M0 0 C0.33 0 0.66 0 1 0 C1.83261535 8.90367375 2.15871917 17.73438842 2.13037109 26.67602539 C2.12497676 28.69620158 2.13037446 30.71615829 2.13671875 32.73632812 C2.12967036 39.88692083 1.92217063 46.9051679 1 54 C0.67 53.01 0.34 52.02 0 51 C-2.31 51 -4.62 51 -7 51 C-7 50.34 -7 49.68 -7 49 C-8.010625 49 -9.02125 49 -10.0625 49 C-14.66379104 48.35469699 -16.7766083 45.62478433 -19.5546875 42.10546875 C-23.41202657 36.486264 -23.65141394 30.62270836 -23 24 C-21.15372902 17.84576341 -16.29273238 13.42887269 -11 10 C-7.34745905 8.85299872 -3.81221733 8.28502559 0 8 C0 5.36 0 2.72 0 0 Z " fill="#81ACF6" transform="translate(769,494)"/>
    <path d="M0 0 C3.69527184 1.74685578 5.47717274 3.28546941 7.875 6.5625 C9.48007308 11.46688998 9.92389799 15.90008311 9 21 C6.64288643 25.28704799 3.53391451 28.15598253 -1 30 C-5.49095347 30.86305738 -9.39524774 30.95552133 -13.39453125 28.57421875 C-17.77121979 24.89149164 -19.54244972 22.53621004 -20.2734375 16.88671875 C-20.51516137 11.65246733 -19.79592384 8.4995991 -16.40625 4.44140625 C-11.59555662 -0.48955447 -6.63500056 -0.94633822 0 0 Z " fill="#EBF2FB" transform="translate(706,768)"/>
    <path d="M0 0 C4.43197574 2.85616214 7.90103829 6.66623697 9.58203125 11.765625 C10.71389407 17.81633091 11.43312144 24.85482745 8.8359375 30.5546875 C7.35067537 32.57312065 5.82174059 34.28260732 4 36 C3.21625 36.763125 2.4325 37.52625 1.625 38.3125 C-4.7926839 42.43815394 -10.66366294 43.4882412 -18.125 43.375 C-18.89714844 43.38660156 -19.66929687 43.39820313 -20.46484375 43.41015625 C-25.35787524 43.38514927 -28.76725787 42.70315308 -33 40 C-33.33 39.34 -33.66 38.68 -34 38 C-33.01 37.505 -33.01 37.505 -32 37 C-34.64 35.35 -37.28 33.7 -40 32 C-39.01 31.505 -39.01 31.505 -38 31 C-36.28802617 31.93571856 -34.60559514 32.92562936 -32.9375 33.9375 C-27.53048996 36.7389581 -23.1682345 37.60997139 -17.1875 37.625 C-16.13067017 37.6403479 -16.13067017 37.6403479 -15.05249023 37.65600586 C-9.68187316 37.51489032 -6.5178249 35.84560615 -2 33 C-1.34 33 -0.68 33 0 33 C0.28875 32.4225 0.5775 31.845 0.875 31.25 C1.56068752 29.87862496 2.27753288 28.52156646 3.046875 27.1953125 C4.87378225 22.98743596 4.52101855 18.48727225 4 14 C1.66028085 9.05059412 -1.28281225 6.67010627 -6 4 C-12.73823727 2.93568148 -19.84447184 2.66147456 -25.75 6.4375 C-26.32234375 6.88996094 -26.8946875 7.34242188 -27.484375 7.80859375 C-29 9 -29 9 -32 10 C-33.00916033 11.76591887 -33.00916033 11.76591887 -34 14 C-34.9590625 15.36125 -34.9590625 15.36125 -35.9375 16.75 C-38.27657647 20.43581746 -39.58031718 23.88291983 -41 28 C-43.475 27.01 -43.475 27.01 -46 26 C-45.56658601 17.76513422 -40.00757746 10.08219187 -34.1015625 4.60546875 C-23.43687168 -3.54172071 -12.31730057 -5.79784047 0 0 Z " fill="#8EC5F7" transform="translate(268,331)"/>
    <path d="M0 0 C5.70349581 4.79985553 5.70349581 4.79985553 6.171875 9.26953125 C6.47986847 18.79363708 6.47986847 18.79363708 3.6484375 22.28515625 C-1.29224438 26.55210878 -4.95458841 27.15878531 -11.40234375 27.046875 C-15.68757745 26.4329269 -17.25238837 24.87460912 -20.1015625 21.66015625 C-22.96897536 16.95440205 -22.96923878 12.00202415 -22.1015625 6.66015625 C-20.07903298 2.84508384 -17.37460294 0.48591221 -13.7890625 -1.83984375 C-8.88473264 -2.75227721 -4.30697264 -2.7458952 0 0 Z " fill="#4195F2" transform="translate(875.1015625,428.33984375)"/>
    <path d="M0 0 C0.66 0 1.32 0 2 0 C2.02578125 1.11375 2.0515625 2.2275 2.078125 3.375 C2.99879689 31.26920299 13.20882176 56.1422968 33 76 C33.80824219 76.81984375 34.61648438 77.6396875 35.44921875 78.484375 C38.07783305 81.07676031 40.76777201 83.57970293 43.5 86.0625 C44.4178125 86.89910156 45.335625 87.73570312 46.28125 88.59765625 C48.79460871 90.818512 51.36153471 92.93033429 54 95 C53.505 96.98 53.505 96.98 53 99 C48.20649685 98.54978147 45.42248825 96.26994755 41.9375 93.1875 C41.37313232 92.69612549 40.80876465 92.20475098 40.22729492 91.69848633 C38.4686836 90.14930941 36.73066931 88.58030451 35 87 C34.46858398 86.5153125 33.93716797 86.030625 33.38964844 85.53125 C25.39460366 78.13420041 18.92456338 70.12335926 13 61 C12.35369629 60.02353516 12.35369629 60.02353516 11.69433594 59.02734375 C1.14786687 42.9166228 -6.33554473 24.64534181 -3 5 C-1.58984375 1.9296875 -1.58984375 1.9296875 0 0 Z " fill="#3282E4" transform="translate(223,365)"/>
    <path d="M0 0 C2.97385537 2.294117 3.97813142 4.35194882 4.55859375 8.0546875 C4.67528907 12.46165201 4.75082413 15.67067892 1.875 19.1875 C-1.22641483 22.07253705 -2.87248306 23.58108299 -7.125 24.0625 C-12.24010772 23.54231955 -14.9917275 21.44548724 -18.625 17.9375 C-20.37769573 14.61660283 -20.94696673 11.43762774 -20.8125 7.6875 C-18.95226806 3.50197812 -16.55501891 0.65556606 -12.5625 -1.5625 C-7.964281 -2.81655973 -4.26671311 -1.99113278 0 0 Z " fill="#EDF4FC" transform="translate(825.8125,507.3125)"/>
    <path d="M0 0 C4.21852374 1.62250913 6.63393447 3.16110982 9 7 C9.86120395 11.77153538 9.70334178 15.79427124 7.25 20 C4.15673939 22.74956498 2.30436248 23.826085 -1.8125 24.375 C-5.88284845 23.89613548 -8.9617966 22.72522265 -12 20 C-14.57186447 16.07407443 -15.11313763 12.95358863 -14.5625 8.3125 C-11.42577152 1.66263561 -7.32468264 -1.04638323 0 0 Z " fill="#EDF6FD" transform="translate(537,216)"/>
    <path d="M0 0 C3.86134614 0.04843983 6.16579789 0.80078068 9.25 3.25 C11.91836411 7.25254616 12.0840238 10.54313299 11.25 15.25 C9.06840855 18.00569447 7.37822506 19.68588747 4.25 21.25 C0.3420352 21.69408691 -1.49548146 21.38704844 -5 19.5 C-8.89465344 16.31346537 -9.55687872 14.76738148 -10.1875 9.8125 C-9.63882608 5.34472668 -8.14808207 4.06792171 -4.75 1.25 C-3.75 0.25 -3.75 0.25 0 0 Z " fill="#3889EE" transform="translate(743.75,299.75)"/>
    <path d="M0 0 C3.04834094 1.30021073 3.81120257 2.24997246 6 5 C7.0674996 9.57618047 6.65043453 12.90819919 4.25 16.9375 C0.7895112 20.10961473 -0.64977326 21.02454958 -5.4375 20.9375 C-9.85959493 19.77379081 -11.43869711 18.80314671 -14 15 C-15.01823396 9.95850015 -14.78782917 6.27069221 -12.0625 1.875 C-7.90939432 -0.66771776 -4.74570603 -1.00742181 0 0 Z " fill="#398EF1" transform="translate(211,488)"/>
    <path d="M0 0 C2.9640585 1.80767693 5.42197673 3.84395345 7 7 C7.3751455 11.97067782 7.15878799 15.05151502 4 19 C0.57905881 21.56570589 -2.84773484 21.43708054 -7 21 C-9.75329021 19.20437595 -11.52627461 17.94745078 -13 15 C-13.56096526 10.98803329 -14.10678522 6.79062037 -11.90625 3.23046875 C-8.17711271 -0.21104891 -4.86768128 -0.8692288 0 0 Z " fill="#6BB4F6" transform="translate(704,214)"/>
    <path d="M0 0 C2.93423195 1.79646854 4.47205355 2.9441071 6 6 C6.38482057 10.07909806 6.44121857 12.29089873 4.25 15.8125 C1.18388248 18.79344759 -0.65394196 19.79516508 -4.875 20.4375 C-9.2682371 19.82244681 -10.84565969 18.08098355 -14 15 C-15.57455739 11.85088521 -15.34799118 9.47991184 -15 6 C-11.41682907 -0.5691467 -7.2228943 -1.4232304 0 0 Z " fill="#3A8CED" transform="translate(637,804)"/>
    <path d="M0 0 C0.33 0 0.66 0 1 0 C1.495 7.425 1.495 7.425 2 15 C0.02 15 -1.96 15 -4 15 C-6.36205093 16.75153337 -8.26295021 18.3768315 -10.3125 20.4375 C-10.87936523 20.98664062 -11.44623047 21.53578125 -12.03027344 22.1015625 C-13.17120158 23.21081615 -14.30593284 24.32648267 -15.43408203 25.44873047 C-16.77786831 26.77994625 -18.14999195 28.08244992 -19.52734375 29.37890625 C-25.47079105 35.05077247 -30.23056275 41.33631817 -35 48 C-36.65 46.68 -38.3 45.36 -40 44 C-34.53632711 35.70331154 -28.00764976 28.7054665 -21 21.6875 C-19.73687988 20.41664551 -19.73687988 20.41664551 -18.44824219 19.12011719 C-4.17265379 5 -4.17265379 5 0 5 C0 3.35 0 1.7 0 0 Z " fill="#B3D9FA" transform="translate(270,545)"/>
    <path d="M0 0 C3.48427767 2.74964081 4.65345885 6.63753665 6.25 10.625 C8.72311074 16.5848684 11.41824495 21.50692502 15.71484375 26.3984375 C17 28 17 28 17 30 C18.65 30.66 20.3 31.32 22 32 C22.33 31.01 22.66 30.02 23 29 C23 30.051875 23 31.10375 23 32.1875 C24.11256982 36.42917245 24.52981015 36.76928824 28.0625 38.9375 C29.36262987 39.6481158 30.67175237 40.34344024 32 41 C31.34 41.99 30.68 42.98 30 44 C25.69235185 42.43358249 21.93828536 40.31663844 18 38 C17.855625 38.639375 17.71125 39.27875 17.5625 39.9375 C17 42 17 42 16 43 C15.76636119 44.84891946 15.58696365 46.70488031 15.4375 48.5625 C15.31181641 50.08037109 15.31181641 50.08037109 15.18359375 51.62890625 C15.12300781 52.41136719 15.06242187 53.19382812 15 54 C14.67 54 14.34 54 14 54 C14.04189453 53.410979 14.08378906 52.82195801 14.12695312 52.21508789 C15.23612913 40.85177503 15.23612913 40.85177503 12.5 30.12890625 C10.51720926 28.0924136 10.51720926 28.0924136 8.3125 26.23828125 C5.26277066 23.28643174 3.47645437 20.038529 1.5 16.3125 C1.15001953 15.68166504 0.80003906 15.05083008 0.43945312 14.40087891 C-1.63284661 10.45120904 -2.55985753 7.44705012 -2 3 C-1.34 2.01 -0.68 1.02 0 0 Z " fill="#92C6F7" transform="translate(205,327)"/>
    <path d="M0 0 C0 1.65 0 3.3 0 5 C-0.7734375 5.08636719 -1.546875 5.17273438 -2.34375 5.26171875 C-8.57708825 6.10260225 -13.25259317 7.16370731 -18.37890625 10.87890625 C-20 12 -20 12 -23 13 C-24.00916033 14.76591887 -24.00916033 14.76591887 -25 17 C-25.9590625 18.36125 -25.9590625 18.36125 -26.9375 19.75 C-29.27657647 23.43581746 -30.58031718 26.88291983 -32 31 C-34.475 30.01 -34.475 30.01 -37 29 C-36.56658601 20.76513422 -31.00757746 13.08219187 -25.1015625 7.60546875 C-17.21839593 1.58319838 -9.8877245 -1.05105733 0 0 Z " fill="#3E89E7" transform="translate(259,328)"/>
    <path d="M0 0 C0.66 0 1.32 0 2 0 C2.02578125 1.11375 2.0515625 2.2275 2.078125 3.375 C2.53296724 17.07164486 4.63150677 29.60813753 10.36328125 42.1796875 C10.57339844 42.78039062 10.78351563 43.38109375 11 44 C10.67 44.66 10.34 45.32 10 46 C7.4375 46.625 7.4375 46.625 5 47 C-0.18381902 36.32905339 -3.35550804 26.41580504 -3.4375 14.5 C-3.44749023 13.63914795 -3.45748047 12.7782959 -3.46777344 11.89135742 C-3.40289792 7.17444372 -3.16122845 3.77183248 0 0 Z " fill="#428DE7" transform="translate(223,365)"/>
    <path d="M0 0 C2.375 2.125 2.375 2.125 4 5 C3.94021398 8.46758942 3.60965977 10.88826749 1.9375 13.9375 C-1.26492585 15.69366901 -4.49690726 15.62026592 -8 15 C-10.5 13.4375 -10.5 13.4375 -12 11 C-12.5 7.5 -12.5 7.5 -12 4 C-8.63427697 -0.41025776 -5.31946396 -1.81640233 0 0 Z " fill="#EBF4FE" transform="translate(333,198)"/>
    <path d="M0 0 C-1.65 1.32 -3.3 2.64 -5 4 C-4.67 4.66 -4.34 5.32 -4 6 C-11.92 6 -19.84 6 -28 6 C-28.66 4.02 -29.32 2.04 -30 0 C-29.08504761 0.00785522 -29.08504761 0.00785522 -28.15161133 0.01586914 C-25.37191815 0.03673335 -22.59224149 0.04969013 -19.8125 0.0625 C-18.85279297 0.07087891 -17.89308594 0.07925781 -16.90429688 0.08789062 C-15.97294922 0.09111328 -15.04160156 0.09433594 -14.08203125 0.09765625 C-13.22843018 0.10289307 -12.3748291 0.10812988 -11.49536133 0.11352539 C-1.08083678 -0.36027893 -1.08083678 -0.36027893 0 0 Z " fill="#9ACAF9" transform="translate(790,734)"/>
    <path d="M0 0 C0.66 0.33 1.32 0.66 2 1 C1.38253906 1.66644531 0.76507812 2.33289063 0.12890625 3.01953125 C-4.21698604 7.74907917 -8.4653925 12.49824151 -12.5 17.5 C-16.33719031 22.25595419 -20.39385101 26.75504801 -24.53125 31.25 C-27.71646027 34.79808233 -30.69074611 38.4967568 -33.68359375 42.20703125 C-37.62230778 46.95607093 -41.80736675 51.47475702 -46 56 C-46 52.56972892 -45.65893665 52.24708171 -43.47265625 49.8125 C-42.93229736 49.20180664 -42.39193848 48.59111328 -41.83520508 47.96191406 C-41.2502124 47.31448242 -40.66521973 46.66705078 -40.0625 46 C-38.85811451 44.64174165 -37.65499485 43.28235985 -36.453125 41.921875 C-35.86080078 41.25349609 -35.26847656 40.58511719 -34.65820312 39.89648438 C-32.47583347 37.40051154 -30.3889885 34.83440655 -28.3125 32.25 C-24.54194526 27.59022851 -20.54857731 23.18103726 -16.48828125 18.7734375 C-13.21856147 15.12900886 -10.15303115 11.33870707 -7.10546875 7.5078125 C-4.87230594 4.8479043 -2.48712839 2.42202032 0 0 Z " fill="#2775D4" transform="translate(636,481)"/>
    <path d="M0 0 C0.556875 0.226875 1.11375 0.45375 1.6875 0.6875 C1.6875 1.3475 1.6875 2.0075 1.6875 2.6875 C1.0275 2.6875 0.3675 2.6875 -0.3125 2.6875 C-0.56 3.22375 -0.8075 3.76 -1.0625 4.3125 C-2.3125 6.6875 -2.3125 6.6875 -4.25 9.4375 C-6.58907647 13.12331746 -7.89281718 16.57041983 -9.3125 20.6875 C-11.7875 19.6975 -11.7875 19.6975 -14.3125 18.6875 C-13.99017122 12.56325323 -11.01461183 7.446188 -7.3125 2.6875 C-2.97073463 -0.40145063 -2.97073463 -0.40145063 0 0 Z " fill="#3A88E6" transform="translate(236.3125,338.3125)"/>
    <path d="M0 0 C0.66 0.33 1.32 0.66 2 1 C1.23816406 1.81082031 0.47632813 2.62164063 -0.30859375 3.45703125 C-6.03073287 9.58137735 -11.53881305 15.78119315 -16.7890625 22.3203125 C-19.1093495 25.13253315 -21.53071134 27.81797263 -24 30.5 C-28.10120977 34.9561831 -31.9478745 39.56151769 -35.75 44.2734375 C-39.35688653 48.64428264 -43.16939044 52.82526949 -47 57 C-47 52.63941961 -44.32662651 50.54315301 -41.5625 47.4375 C-40.742052 46.49813599 -40.742052 46.49813599 -39.9050293 45.53979492 C-36.02995269 41.11655608 -32.08065117 36.76094565 -28.12890625 32.40625 C-25.15794916 29.04825079 -22.35681591 25.56165545 -19.53515625 22.078125 C-16.47227329 18.35924707 -13.34024012 14.7052645 -10.1875 11.0625 C-9.63610352 10.42352783 -9.08470703 9.78455566 -8.51660156 9.1262207 C-5.77685295 5.97099097 -3.00813502 2.90616434 0 0 Z " fill="#2A76D8" transform="translate(554,577)"/>
    <path d="M0 0 C3.90244475 1.30081492 5.29833282 3.74058365 7.625 6.9375 C12.66073655 13.68138977 18.0425063 20.0425063 24 26 C23.67 26.99 23.34 27.98 23 29 C2.27715657 8.76732572 2.27715657 8.76732572 -1 3 C-0.67 2.01 -0.34 1.02 0 0 Z " fill="#52AAF2" transform="translate(325,676)"/>
    <path d="M0 0 C5.02930734 4.02344587 9.35870398 8.4758957 13.65820312 13.25170898 C16.94033105 16.88365443 20.32477637 20.3780652 23.8125 23.8125 C27.76782972 27.72249643 31.46863476 31.70509633 35 36 C34.505 36.99 34.505 36.99 34 38 C25.51759271 29.69070306 25.51759271 29.69070306 21.6875 25.1875 C18.60650737 21.58820955 15.30492287 18.26484062 11.9375 14.9375 C7.74312919 10.78335362 3.64482318 6.65727406 0 2 C0 1.34 0 0.68 0 0 Z " fill="#2B80D9" transform="translate(396,552)"/>
    <path d="M0 0 C3.08489426 1.37568462 5.21350786 2.95694078 7.6015625 5.3359375 C8.25640625 5.98820312 8.91125 6.64046875 9.5859375 7.3125 C10.25882813 7.993125 10.93171875 8.67375 11.625 9.375 C12.305625 10.04789062 12.98625 10.72078125 13.6875 11.4140625 C14.33976563 12.06890625 14.99203125 12.72375 15.6640625 13.3984375 C16.25654785 13.99317871 16.8490332 14.58791992 17.45947266 15.20068359 C19.03397047 17.03967708 20.01735227 18.79646855 21 21 C18 21 18 21 16.38671875 19.64453125 C15.82597656 19.03996094 15.26523437 18.43539063 14.6875 17.8125 C12.43804536 15.44364755 10.21145395 13.30687413 7.625 11.3125 C4.87280948 8.88795121 4.63260405 8.37388827 4 5 C2.71937515 3.2925002 1.3927289 1.61736259 0 0 Z " fill="#47A4F4" transform="translate(689,339)"/>
    <path d="M0 0 C0.66 0.33 1.32 0.66 2 1 C-4.62368189 6.27191007 -11.72156224 10.57541485 -19.015625 14.83447266 C-20.98847844 15.99323279 -22.94787097 17.17244593 -24.90625 18.35546875 C-26.14543181 19.09182195 -27.38500001 19.82752542 -28.625 20.5625 C-29.73101563 21.22378906 -30.83703125 21.88507812 -31.9765625 22.56640625 C-34.99916797 23.99960548 -36.71411214 24.3359179 -40 24 C-37.14732457 21.74209565 -34.28695144 20.02357341 -31.03515625 18.3984375 C-30.07552979 17.91213867 -29.11590332 17.42583984 -28.12719727 16.92480469 C-26.61017212 16.15765137 -26.61017212 16.15765137 -25.0625 15.375 C-16.19574416 10.83364334 -7.93470098 6.03098193 0 0 Z " fill="#1868ED" transform="translate(664,725)"/>
    <path d="M0 0 C0.33 0 0.66 0 1 0 C1.34644464 7.31580532 0.41781514 13.68651373 -1.4375 20.75 C-1.89628017 22.5568485 -2.35335871 24.36413005 -2.80859375 26.171875 C-3.01983887 27.00525391 -3.23108398 27.83863281 -3.44873047 28.69726562 C-4.10684726 31.44631681 -4.59706534 34.20261457 -5 37 C-2.69 37.99 -0.38 38.98 2 40 C1.67 40.66 1.34 41.32 1 42 C-1.97 41.01 -4.94 40.02 -8 39 C-7.34133303 33.44943562 -6.06253105 28.25278828 -4.5625 22.875 C-2.49530595 15.28000333 -0.94126813 7.82516935 0 0 Z " fill="#D6E1F5" transform="translate(767,561)"/>
    <path d="M0 0 C0.89589844 -0.01417969 1.79179688 -0.02835938 2.71484375 -0.04296875 C5.0625 0.1875 5.0625 0.1875 7.0625 2.1875 C6.4025 2.1875 5.7425 2.1875 5.0625 2.1875 C5.0625 3.1775 5.0625 4.1675 5.0625 5.1875 C6.0525 5.5175 7.0425 5.8475 8.0625 6.1875 C5.33407939 7.55171031 3.45296682 7.06557211 0.4375 6.75 C-0.56539062 6.64816406 -1.56828125 6.54632813 -2.6015625 6.44140625 C-3.37242187 6.35761719 -4.14328125 6.27382812 -4.9375 6.1875 C-5.31968767 4.53135343 -5.65145102 2.86292976 -5.9375 1.1875 C-4.27188601 -0.47811399 -2.27787295 0.01634055 0 0 Z " fill="#418FE7" transform="translate(805.9375,246.8125)"/>
    <path d="M0 0 C0.33 0 0.66 0 1 0 C1.05416741 2.72943537 1.09375225 5.45778564 1.125 8.1875 C1.15013672 9.34088867 1.15013672 9.34088867 1.17578125 10.51757812 C1.21266851 14.8149434 0.9958504 18.07901831 -1 22 C-1.66 21.67 -2.32 21.34 -3 21 C-3.08132187 18.43685501 -3.14064175 15.87631582 -3.1875 13.3125 C-3.21263672 12.59126953 -3.23777344 11.87003906 -3.26367188 11.12695312 C-3.3264142 6.54676323 -2.84865767 3.63795829 0 0 Z " fill="#2B81E6" transform="translate(223,365)"/>
    <path d="M0 0 C0.99386719 0.00902344 1.98773438 0.01804687 3.01171875 0.02734375 C4.15060547 0.04474609 4.15060547 0.04474609 5.3125 0.0625 C5.3125 1.7125 5.3125 3.3625 5.3125 5.0625 C1.6825 5.3925 -1.9475 5.7225 -5.6875 6.0625 C-5.6875 5.0725 -5.6875 4.0825 -5.6875 3.0625 C-6.6775 2.4025 -7.6675 1.7425 -8.6875 1.0625 C-5.53819107 0.01273036 -3.29935544 -0.03881595 0 0 Z " fill="#549BEC" transform="translate(253.6875,327.9375)"/>
    <path d="M0 0 C2.27090104 3.40635155 3.91609989 6.98254175 5.625 10.6875 C9.5900802 19.20743839 13.75703355 27.61562746 18 36 C17.34 36 16.68 36 16 36 C15.55084229 35.12674072 15.10168457 34.25348145 14.63891602 33.35375977 C12.97661087 30.12311357 11.31180993 26.89375912 9.64624023 23.66479492 C8.92485171 22.26540845 8.20414631 20.86566961 7.48413086 19.46557617 C6.4508389 17.4565949 5.41512048 15.44888147 4.37890625 13.44140625 C3.89448814 12.49763878 3.89448814 12.49763878 3.40028381 11.5348053 C1.98099391 8.57470391 1.98099391 8.57470391 0 6 C-0.04080783 4.00041636 -0.04254356 1.99954746 0 0 Z " fill="#4DAFF3" transform="translate(289,616)"/>
    <path d="M0 0 C0.66 0.33 1.32 0.66 2 1 C-0.11003787 3.28242792 -2.12803451 4.77549766 -4.87109375 6.2265625 C-5.61037109 6.6184375 -6.34964844 7.0103125 -7.11132812 7.4140625 C-7.87896484 7.81367187 -8.64660156 8.21328125 -9.4375 8.625 C-10.20126953 9.03234375 -10.96503906 9.4396875 -11.75195312 9.859375 C-15.17214292 11.65728156 -18.22011082 13.1409128 -22 14 C-24.00382009 14.65509503 -26.00458132 15.31974363 -28 16 C-28.66 15.34 -29.32 14.68 -30 14 C-28.51113281 13.48953125 -28.51113281 13.48953125 -26.9921875 12.96875 C-18.96332343 10.13111607 -11.58617848 6.96282817 -4.34326172 2.453125 C-2.92627048 1.58319734 -1.46622274 0.78411042 0 0 Z " fill="#CEDDF7" transform="translate(639,742)"/>
    <path d="M0 0 C4.554787 3.80014774 8.95279259 7.65665546 13 12 C13 12.66 13 13.32 13 14 C13.59296875 14.25523437 14.1859375 14.51046875 14.796875 14.7734375 C17.21224538 16.11816498 18.51211706 17.49214367 20.25 19.625 C20.77078125 20.25664063 21.2915625 20.88828125 21.828125 21.5390625 C22.40820312 22.26222656 22.40820312 22.26222656 23 23 C22.67 23.66 22.34 24.32 22 25 C19.45404894 22.48346359 16.91405545 19.96099206 14.375 17.4375 C13.66214844 16.73302734 12.94929688 16.02855469 12.21484375 15.30273438 C7.92332377 11.03090027 3.78359372 6.73247606 0 2 C0 1.34 0 0.68 0 0 Z " fill="#2B8DE7" transform="translate(462,537)"/>
    <path d="M0 0 C5.52132541 4.5516562 10.439544 9.45324976 15.3125 14.6875 C16.02728516 15.44611328 16.74207031 16.20472656 17.47851562 16.98632812 C20.22169176 19.91565759 22.76909677 22.65364516 25 26 C21.08790692 24.40584497 18.62781914 21.86106668 15.6875 18.875 C15.20474609 18.38580078 14.72199219 17.89660156 14.22460938 17.39257812 C10.83019521 13.92565311 7.57504387 10.35855177 4.4375 6.65625 C3.01215803 4.95880776 3.01215803 4.95880776 1.3125 3.40625 C0 2 0 2 0 0 Z " fill="#2578DC" transform="translate(448,608)"/>
    <path d="M0 0 C0 3.96985187 -1.3421129 4.98507557 -3.875 8 C-4.68582031 8.96550781 -5.49664063 9.93101562 -6.33203125 10.92578125 C-10.45279939 15.70955566 -14.70912116 20.36871741 -19 25 C-19 21.5275455 -18.58418071 21.15902679 -16.3671875 18.671875 C-15.80773437 18.03636719 -15.24828125 17.40085937 -14.671875 16.74609375 C-14.07890625 16.08738281 -13.4859375 15.42867187 -12.875 14.75 C-11.7263958 13.45327264 -10.57795757 12.15639824 -9.4296875 10.859375 C-8.8634668 10.22451172 -8.29724609 9.58964844 -7.71386719 8.93554688 C-5.10476872 5.98897528 -2.55296053 2.99526676 0 0 Z " fill="#357ED8" transform="translate(609,512)"/>
    <path d="M0 0 C6.75 0.875 6.75 0.875 9 2 C8.34 3.32 7.68 4.64 7 6 C0.07 5.505 0.07 5.505 -7 5 C-7 4.67 -7 4.34 -7 4 C-4.69 4 -2.38 4 0 4 C0 2.68 0 1.36 0 0 Z " fill="#74B1F0" transform="translate(259,329)"/>
    <path d="M0 0 C0.33 0 0.66 0 1 0 C1.52885012 3.5961808 1.03725048 4.94112021 -0.9375 8.0625 C-4.64254526 12.12440514 -9.67004706 14.62256475 -15.13671875 15.2421875 C-17.0625 15.25 -17.0625 15.25 -20 15 C-20.33 14.34 -20.66 13.68 -21 13 C-20.34773438 12.97421875 -19.69546875 12.9484375 -19.0234375 12.921875 C-11.79856061 12.45300393 -7.66256328 10.95040795 -2.6875 5.4375 C-0.85625 3.03541667 -0.85625 3.03541667 0 0 Z " fill="#2870EA" transform="translate(364,775)"/>
    <path d="M0 0 C1 2 1 2 0.00390625 5.0390625 C-0.47175781 6.22242188 -0.94742188 7.40578125 -1.4375 8.625 C-1.91058594 9.81351562 -2.38367188 11.00203125 -2.87109375 12.2265625 C-3.24363281 13.14179688 -3.61617187 14.05703125 -4 15 C-4.33 15 -4.66 15 -5 15 C-5 13.35 -5 11.7 -5 10 C-4.34 10 -3.68 10 -3 10 C-3.66 9.34 -4.32 8.68 -5 8 C-5.99 8.33 -6.98 8.66 -8 9 C-7.34 6.69 -6.68 4.38 -6 2 C-5.01 2 -4.02 2 -3 2 C-2.01 1.34 -1.02 0.68 0 0 Z " fill="#438AE6" transform="translate(830,324)"/>
    <path d="M0 0 C0.33 0 0.66 0 1 0 C1.25413123 3.62370661 1.47405533 7.24868737 1.6875 10.875 C1.76033203 11.90753906 1.83316406 12.94007813 1.90820312 14.00390625 C1.96298828 14.99003906 2.01777344 15.97617187 2.07421875 16.9921875 C2.13182373 17.90339355 2.18942871 18.81459961 2.2487793 19.75341797 C2.16668213 20.49479004 2.08458496 21.23616211 2 22 C1.01 22.66 0.02 23.32 -1 24 C-1.72965366 26.56282742 -1.72965366 26.56282742 -2 29 C-3.32087692 26.82443801 -4.07112439 25.56899513 -3.75 23 C-3 21 -3 21 -1.9921875 19.421875 C-0.49889798 15.77683759 -0.530425 12.15505325 -0.375 8.25 C-0.33632812 7.45722656 -0.29765625 6.66445313 -0.2578125 5.84765625 C-0.163892 3.89880584 -0.08087178 1.94943549 0 0 Z " fill="#5A9CE7" transform="translate(224,365)"/>
    <path d="M0 0 C0.75 1.6875 0.75 1.6875 1 4 C-1.15695637 7.35526546 -3.1486314 9.78956987 -7 11 C-9.33203812 11.0777346 -11.66839059 11.08967728 -14 11 C-14 10.34 -14 9.68 -14 9 C-13.29875 9.0825 -12.5975 9.165 -11.875 9.25 C-7.9571942 8.90932123 -6.04080461 7.44586458 -3 5 C-1.13689678 2.39975951 -1.13689678 2.39975951 0 0 Z " fill="#2870F0" transform="translate(879,444)"/>
    <path d="M0 0 C3.83564767 1.48453771 7.54792807 3.14573366 11.25 4.9375 C12.83554687 5.69353516 12.83554687 5.69353516 14.453125 6.46484375 C17 8 17 8 18 11 C13.50902459 9.65135873 9.67388743 7.85935169 5.625 5.5 C4.56539063 4.8915625 3.50578125 4.283125 2.4140625 3.65625 C1.61742187 3.1096875 0.82078125 2.563125 0 2 C0 1.34 0 0.68 0 0 Z " fill="#3D91F1" transform="translate(395,738)"/>
    <path d="M0 0 C0.66 0.33 1.32 0.66 2 1 C1.34773437 1.71285156 0.69546875 2.42570313 0.0234375 3.16015625 C-4.73339706 8.37302952 -9.44633228 13.60749876 -14 19 C-14 15.56223405 -13.61645115 15.1876286 -11.4453125 12.71484375 C-10.91292969 12.10189453 -10.38054688 11.48894531 -9.83203125 10.85742188 C-9.26871094 10.22384766 -8.70539062 9.59027344 -8.125 8.9375 C-7.56941406 8.30005859 -7.01382813 7.66261719 -6.44140625 7.00585938 C-4.3448921 4.60876067 -2.25239114 2.25239114 0 0 Z " fill="#2371D6" transform="translate(571,557)"/>
    <path d="M0 0 C0.66 0 1.32 0 2 0 C2.33 0.99 2.66 1.98 3 3 C2.319375 3.99 2.319375 3.99 1.625 5 C-0.78920468 9.45699325 -0.74614477 14.00167804 -1 19 C-1.33 19 -1.66 19 -2 19 C-2.05380578 16.20807795 -2.09357669 13.4171859 -2.125 10.625 C-2.14175781 9.8309375 -2.15851563 9.036875 -2.17578125 8.21875 C-2.19335473 6.14507985 -2.10335168 4.07116759 -2 2 C-1.34 1.34 -0.68 0.68 0 0 Z " fill="#67A6EC" transform="translate(221,362)"/>
    <path d="M0 0 C0.33 1.32 0.66 2.64 1 4 C-0.12279462 4.98169476 -1.24831473 5.96027298 -2.375 6.9375 C-3.31472656 7.75541016 -3.31472656 7.75541016 -4.2734375 8.58984375 C-7.53118232 11.25058104 -9.87122208 11.08975604 -14 11 C-13 9 -13 9 -9.25 7.75 C-4.66893532 6.15981028 -2.77755475 3.90593637 0 0 Z " fill="#2B76ED" transform="translate(620,236)"/>
    <path d="M0 0 C0.9796875 -0.01417969 1.959375 -0.02835938 2.96875 -0.04296875 C5.5 0.1875 5.5 0.1875 7.5 2.1875 C6.43072266 2.27837891 6.43072266 2.27837891 5.33984375 2.37109375 C0.03039712 2.83558101 -5.233409 3.36825251 -10.5 4.1875 C-7.02494361 0.5544865 -5.03152647 0.03310215 0 0 Z " fill="#6FC1F7" transform="translate(347.5,749.8125)"/>
    <path d="M0 0 C2.05078125 0.03255208 4.1015625 0.06510417 6.15234375 0.09765625 C5.59546875 0.36578125 5.03859375 0.63390625 4.46484375 0.91015625 C2.83039463 1.74946796 1.22786142 2.65234565 -0.34765625 3.59765625 C-2.47833521 4.87606363 -4.61066761 6.02058765 -6.84765625 7.09765625 C-6.84765625 9.07765625 -6.84765625 11.05765625 -6.84765625 13.09765625 C-7.17765625 13.09765625 -7.50765625 13.09765625 -7.84765625 13.09765625 C-8.16015625 9.91015625 -8.16015625 9.91015625 -7.84765625 6.09765625 C-5.41015625 3.22265625 -5.41015625 3.22265625 -2.84765625 1.09765625 C-1.84765625 0.09765625 -1.84765625 0.09765625 0 0 Z " fill="#66B4F4" transform="translate(741.84765625,299.90234375)"/>
    <path d="M0 0 C0.66 0 1.32 0 2 0 C1.66411682 2.51912388 1.42645046 3.67196119 -0.625 5.25 C-3.8010373 6.25295915 -6.69228878 6.12721966 -10 6 C-10.33 5.01 -10.66 4.02 -11 3 C-7.7 3 -4.4 3 -1 3 C-0.67 2.01 -0.34 1.02 0 0 Z " fill="#60A4F4" transform="translate(707,229)"/>
    <path d="M0 0 C0.6875 1.8125 0.6875 1.8125 1 4 C0.0625 5.6875 0.0625 5.6875 -2 7 C-4.67402387 7.72826846 -7.23094144 8.25680785 -10 8 C-11.75 6.5078125 -11.75 6.5078125 -13 5 C-12.07767578 5.01740234 -12.07767578 5.01740234 -11.13671875 5.03515625 C-9.92435547 5.04869141 -9.92435547 5.04869141 -8.6875 5.0625 C-7.88699219 5.07410156 -7.08648437 5.08570313 -6.26171875 5.09765625 C-3.83138666 5.09657855 -3.83138666 5.09657855 -1 4 C-0.26676204 1.98491642 -0.26676204 1.98491642 0 0 Z " fill="#D6E3F8" transform="translate(285,724)"/>
    <path d="M0 0 C2.31332486 3.46998729 2.33957563 4.92509248 2 9 C1.01 10.485 1.01 10.485 0 12 C-0.66 12 -1.32 12 -2 12 C-2.28571429 3.42857143 -2.28571429 3.42857143 0 0 Z " fill="#3084E5" transform="translate(224,384)"/>
    <path d="M0 0 C-0.99 0.66 -1.98 1.32 -3 2 C-5.08095995 3.78426863 -7.11836116 5.61253579 -9.16015625 7.44140625 C-11 9 -11 9 -13 10 C-12.27683681 5.62295962 -10.17787243 3.92173861 -6.85546875 1.1953125 C-4.47056457 -0.34106788 -2.77477034 -0.5045037 0 0 Z " fill="#9ABDF8" transform="translate(763,504)"/>
    <path d="M0 0 C0.66 0.33 1.32 0.66 2 1 C0.8553125 2.2684375 0.8553125 2.2684375 -0.3125 3.5625 C-3.0491418 6.82003668 -4.49414789 10.03723128 -6 14 C-6.6796875 12.29296875 -6.6796875 12.29296875 -7 10 C-5.8203125 7.67578125 -5.8203125 7.67578125 -4.125 5.3125 C-3.57070313 4.52488281 -3.01640625 3.73726562 -2.4453125 2.92578125 C-1 1 -1 1 0 0 Z " fill="#58B7F5" transform="translate(335,754)"/>
    <path d="M0 0 C0.33 0 0.66 0 1 0 C0.75579333 4.23291565 0.598306 6.37020421 -2.375 9.5 C-3.24125 9.995 -4.1075 10.49 -5 11 C-5.99 10.67 -6.98 10.34 -8 10 C-4.25 7 -4.25 7 -2 7 C-1.34 4.69 -0.68 2.38 0 0 Z " fill="#2471EC" transform="translate(216,497)"/>
    <path d="M0 0 C0.99 0 1.98 0 3 0 C2.67 2.31 2.34 4.62 2 7 C0.68 7 -0.64 7 -2 7 C-1.34 4.69 -0.68 2.38 0 0 Z " fill="#2D7EEA" transform="translate(814,351)"/>
    <path d="M0 0 C0 0.66 0 1.32 0 2 C-0.99 2 -1.98 2 -3 2 C-3.226875 2.5775 -3.45375 3.155 -3.6875 3.75 C-5.33038023 6.5663661 -7.39533227 8.08077114 -10 10 C-8.71596412 5.50587442 -5.23012555 0 0 0 Z " fill="#64BDF5" transform="translate(599,212)"/>
    <path d="M0 0 C-3.95523655 2.75668002 -7.22423661 3.5317879 -12 4 C-9.27887058 0.4785384 -4.19677615 -2.09838808 0 0 Z " fill="#2977F0" transform="translate(601,759)"/>
    <path d="M0 0 C-8.261959 5.74031891 -8.261959 5.74031891 -13 5 C-4.82022472 -1.60674157 -4.82022472 -1.60674157 0 0 Z " fill="#216FEF" transform="translate(637,744)"/>
    <path d="M0 0 C-1.86882253 3.73764507 -6.34287996 5.23916443 -10 7 C-7.6551217 1.76911763 -5.98347266 -0.48514643 0 0 Z " fill="#54B3F3" transform="translate(207,488)"/>
    <path d="M0 0 C1 3 1 3 -0.125 5.5625 C-2.23794891 8.30933359 -3.72518425 9.02640613 -7 10 C-4.93992341 6.39486597 -2.6486859 3.19668988 0 0 Z " fill="#F0F4F8" transform="translate(882,450)"/>
    <path d="M0 0 C0.33 1.32 0.66 2.64 1 4 C-1.71182212 6.60334924 -2.89133813 6.99456691 -6.75 7.1875 C-7.8225 7.125625 -8.895 7.06375 -10 7 C-9.443125 6.731875 -8.88625 6.46375 -8.3125 6.1875 C-3.37424914 3.93288201 -3.37424914 3.93288201 0 0 Z " fill="#1C6AE6" transform="translate(640,816)"/>
    <path d="M0 0 C0.66 0.33 1.32 0.66 2 1 C-0.97 4.3 -3.94 7.6 -7 11 C-7 7.22089522 -6.00296038 6.53893899 -3.5 3.8125 C-2.8503125 3.09707031 -2.200625 2.38164063 -1.53125 1.64453125 C-1.0259375 1.10183594 -0.520625 0.55914063 0 0 Z " fill="#2673D5" transform="translate(581,545)"/>
    <path d="M0 0 C0.66 0.33 1.32 0.66 2 1 C-0.12121657 3.33333823 -2.01594365 4.9148886 -5 6 C-7.12890625 5.546875 -7.12890625 5.546875 -9 5 C-7.54735962 4.1361871 -6.0876837 3.28419546 -4.625 2.4375 C-3.40683594 1.72400391 -3.40683594 1.72400391 -2.1640625 0.99609375 C-1.44992187 0.66738281 -0.73578125 0.33867188 0 0 Z " fill="#BED2F6" transform="translate(639,742)"/>
    <path d="M0 0 C0 3.58912412 -0.66436554 4.10857029 -3 6.6875 C-3.556875 7.31011719 -4.11375 7.93273437 -4.6875 8.57421875 C-5.120625 9.04472656 -5.55375 9.51523437 -6 10 C-6.66 9.67 -7.32 9.34 -8 9 C-5.36 6.03 -2.72 3.06 0 0 Z " fill="#288DE9" transform="translate(613,418)"/>
    <path d="M0 0 C0.66 0.33 1.32 0.66 2 1 C2 1.66 2 2.32 2 3 C1.34 3 0.68 3 0 3 C0 4.65 0 6.3 0 8 C-0.66 7.67 -1.32 7.34 -2 7 C-1.67 6.34 -1.34 5.68 -1 5 C-1.66 5 -2.32 5 -3 5 C-2.625 3.0625 -2.625 3.0625 -2 1 C-1.34 0.67 -0.68 0.34 0 0 Z " fill="#2779E7" transform="translate(825,331)"/>
    <path d="M0 0 C0.99 0 1.98 0 3 0 C2.8125 2.375 2.8125 2.375 2 5 C-0.5625 6.3125 -0.5625 6.3125 -3 7 C-2.01 4.69 -1.02 2.38 0 0 Z " fill="#E8EEF7" transform="translate(623,234)"/>
    <path d="M0 0 C1.12894876 0.93274109 2.25300876 1.87140122 3.375 2.8125 C4.00148438 3.33457031 4.62796875 3.85664062 5.2734375 4.39453125 C7 6 7 6 9 9 C6 9 6 9 4.39453125 7.5390625 C3.61142578 6.59160156 3.61142578 6.59160156 2.8125 5.625 C2.28269531 4.99851562 1.75289063 4.37203125 1.20703125 3.7265625 C0 2 0 2 0 0 Z " fill="#328BE0" transform="translate(396,552)"/>
    <path d="M0 0 C0 4.38968456 -2.12805101 5.76905739 -5 9 C-5.66 8.67 -6.32 8.34 -7 8 C-4.69 5.36 -2.38 2.72 0 0 Z " fill="#2D8EE6" transform="translate(571,467)"/>
    <path d="M0 0 C0.33 0 0.66 0 1 0 C1 2.31 1 4.62 1 7 C-0.32 6.34 -1.64 5.68 -3 5 C-1.125 1.125 -1.125 1.125 0 0 Z " fill="#2B81E7" transform="translate(226,352)"/>
    <path d="M0 0 C0.99 0 1.98 0 3 0 C2.34 1.65 1.68 3.3 1 5 C-0.32 5 -1.64 5 -3 5 C-1.125 1.125 -1.125 1.125 0 0 Z " fill="#307FE5" transform="translate(230,344)"/>
    <path d="M0 0 C4.44870215 -0.39253254 7.14243493 0.84694043 11 3 C8.83032311 3.95465783 7.43671207 4.14401212 5.17578125 3.3984375 C3.4315257 2.64129615 1.71372869 1.82390802 0 1 C0 0.67 0 0.34 0 0 Z " fill="#5CB9F6" transform="translate(610,290)"/>
    <path d="M0 0 C0 2.31 0 4.62 0 7 C-1.32 6.67 -2.64 6.34 -4 6 C-4 4.68 -4 3.36 -4 2 C-1 0 -1 0 0 0 Z " fill="#2D81E5" transform="translate(835,300)"/>
    <path d="M0 0 C2.475 0.99 2.475 0.99 5 2 C5 2.66 5 3.32 5 4 C6.65 4 8.3 4 10 4 C10 4.33 10 4.66 10 5 C6.63295715 5.2295711 4.58629732 5.33943529 1.625 3.625 C1.08875 3.08875 0.5525 2.5525 0 2 C0 1.34 0 0.68 0 0 Z " fill="#3A7DEA" transform="translate(625,819)"/>
    <path d="M0 0 C3.36720387 1.39332574 4.9859524 2.9789286 7 6 C3.75728494 5.4409112 2.06942576 4.5867822 0 2 C0 1.34 0 0.68 0 0 Z " fill="#D5E5F9" transform="translate(478,557)"/>
    <path d="M0 0 C3 3 3 3 3.07421875 5.04296875 C2.71614583 7.02864583 2.35807292 9.01432292 2 11 C1.67 11 1.34 11 1 11 C0.67 7.37 0.34 3.74 0 0 Z " fill="#EDF2F9" transform="translate(770,501)"/>
    <path d="M0 0 C0.99 0.33 1.98 0.66 3 1 C4.1875 4.0625 4.1875 4.0625 5 7 C4.01 7 3.02 7 2 7 C1.34 4.69 0.68 2.38 0 0 Z " fill="#4E94E5" transform="translate(225,404)"/>
    <path d="M0 0 C1.4606285 2.64738916 2 3.89448334 2 7 C0.68 6.67 -0.64 6.34 -2 6 C-1.34 4.02 -0.68 2.04 0 0 Z " fill="#4B91EB" transform="translate(819,338)"/>
</svg>
